<svg xmlns="http://www.w3.org/2000/svg" viewBox="0 0 385.14 385.14"><g id="Layer_2" data-name="Layer 2"><g id="shapes"><path id="_1" data-name="1" d="M290.41,204.53c16.15-2.5,34.31-5.35,54.71-8.34a3.66,3.66,0,0,0,0-7.25c-20.4-3-38.56-5.83-54.71-8.33a19.4,19.4,0,0,1-12.4-31c27-35,60.83-82.92,106.36-143.69A3.66,3.66,0,0,0,379.24.77C318.47,46.29,270.58,80.09,235.55,107.13a19.4,19.4,0,0,1-31-12.4C202,78.58,199.18,60.41,196.19,40a3.66,3.66,0,0,0-7.25,0c-3,20.39-5.83,38.56-8.33,54.71a19.4,19.4,0,0,1-31,12.4C114.56,80.09,66.67,46.29,5.9.77A3.66,3.66,0,0,0,.77,5.9C46.29,66.67,80.09,114.56,107.13,149.59a19.4,19.4,0,0,1-12.4,31C78.58,183.11,60.41,186,40,188.94a3.66,3.66,0,0,0,0,7.25c20.39,3,38.56,5.84,54.71,8.34a19.4,19.4,0,0,1,12.4,31c-27,35-60.84,82.92-106.36,143.69a3.66,3.66,0,0,0,5.13,5.13C66.67,338.84,114.56,305.05,149.59,278a19.4,19.4,0,0,1,31,12.4c2.5,16.15,5.35,34.31,8.33,54.71a3.66,3.66,0,0,0,7.25,0c3-20.4,5.84-38.56,8.34-54.71a19.4,19.4,0,0,1,31-12.4c35,27,82.92,60.84,143.69,106.36a3.66,3.66,0,0,0,5.13-5.13C338.85,318.47,305.05,270.58,278,235.55A19.4,19.4,0,0,1,290.41,204.53Z"/></g></g></svg>