<svg xmlns="http://www.w3.org/2000/svg" viewBox="0 0 419.08 419.08"><g id="Layer_2" data-name="Layer 2"><g id="shapes"><g id="_3" data-name="3"><path d="M235.35,148.66,213.28,3.22a3.79,3.79,0,0,0-7.49,0L183.73,148.66a3.79,3.79,0,0,1-5.37,2.85L137,131.93a3.79,3.79,0,0,0-5,5l19.58,41.38a3.79,3.79,0,0,1-2.85,5.37L3.22,205.79a3.79,3.79,0,0,0,0,7.49l145.44,22.07a3.78,3.78,0,0,1,2.85,5.36L131.93,282.1a3.79,3.79,0,0,0,5,5l41.38-19.57a3.78,3.78,0,0,1,5.37,2.85l22.06,145.44a3.79,3.79,0,0,0,7.49,0l22.07-145.44a3.78,3.78,0,0,1,5.36-2.85l41.39,19.57a3.78,3.78,0,0,0,5-5l-19.58-41.39a3.79,3.79,0,0,1,2.86-5.36l145.44-22.07a3.79,3.79,0,0,0,0-7.49L270.42,183.73a3.79,3.79,0,0,1-2.86-5.37L287.14,137a3.79,3.79,0,0,0-5-5l-41.39,19.58A3.78,3.78,0,0,1,235.35,148.66Z"/></g></g></g></svg>