<svg xmlns="http://www.w3.org/2000/svg" viewBox="0 0 692.94 167"><defs><style>.cls-1{fill:#0e0a23;}</style></defs><g id="Layer_2" data-name="Layer 2"><g id="shapes"><path id="_10" data-name="10" class="cls-1" d="M621,72.69c-18-10.8-18-43.22-18-43.22s0,32.42-18,43.22c-5.69,3.42-15,5.76-25,7.36a48.08,48.08,0,0,1-13.45.22c-15.73-2-31.17-5.25-39.91-10.5C483.77,56,483.77,14.86,483.77,14.86s0,41.18-22.85,54.91C452.55,74.8,438.05,78,423,80a48,48,0,0,1-11.86.1c-20.59-2.38-41.46-6.43-52.9-13.3-27.59-16.57-27.8-66-27.8-66.8,0,.77-.22,50.23-27.81,66.8-11.15,6.7-31.24,10.71-51.32,13.11a47.82,47.82,0,0,1-12.19-.1c-14.51-2-28.36-5.17-36.47-10C179.84,56,179.84,14.86,179.84,14.86S179.84,56,157,69.77c-4.46,2.68-10.66,4.84-17.76,6.57-10.17,2.49-21.92,1.39-30.13-3-.4-.21-.79-.43-1.16-.66-18-10.8-18-43.22-18-43.22s0,32.42-18,43.22S0,83.5,0,83.5s54,0,72,10.81,18,43.22,18,43.22,0-32.42,18-43.22c.37-.23.76-.45,1.16-.66,8.21-4.38,20-5.48,30.13-3,7.1,1.73,13.3,3.89,17.76,6.57,22.86,13.73,22.86,54.91,22.86,54.91s0-41.18,22.85-54.91c8.11-4.87,22-8,36.47-10a47.82,47.82,0,0,1,12.19-.1c20.08,2.4,40.17,6.41,51.32,13.11,27.59,16.57,27.81,66,27.81,66.8,0-.77.21-50.23,27.8-66.8,11.44-6.87,32.31-10.92,52.9-13.3A48,48,0,0,1,423,87c15,2,29.51,5.2,37.88,10.23,22.85,13.73,22.85,54.91,22.85,54.91s0-41.18,22.86-54.91c8.74-5.25,24.18-8.5,39.91-10.5A48.08,48.08,0,0,1,560,87c10,1.6,19.33,3.94,25,7.36,18,10.8,18,43.22,18,43.22s0-32.42,18-43.22,72-10.81,72-10.81S639,83.5,621,72.69ZM339.76,87.3C330.33,93,330.33,110,330.33,110s0-17-9.43-22.66-37.73-5.66-37.73-5.66,28.3,0,37.73-5.67,9.43-22.66,9.43-22.66,0,17,9.43,22.66,37.72,5.67,37.72,5.67S349.19,81.64,339.76,87.3Z"/></g></g></svg>