<svg xmlns="http://www.w3.org/2000/svg" xmlns:xlink="http://www.w3.org/1999/xlink" viewBox="0 0 2151.44 580.31"><defs><style>.cls-1{fill:#0e0a23;}.cls-2{fill:#19123f;}.cls-3{fill:#fff;}.cls-4{fill:url(#linear-gradient);}</style><linearGradient id="linear-gradient" x1="1069.59" y1="359.11" x2="1069.59" y2="197.32" gradientUnits="userSpaceOnUse"><stop offset="0" stop-color="#fff"/><stop offset="1" stop-color="#b4e0ff"/></linearGradient></defs><g id="Layer_2" data-name="Layer 2"><g id="Layer_1-2" data-name="Layer 1"><path class="cls-1" d="M139.23,240.69s-12.59-3-33.14-9.49c47.85-40.11,121.18-42.1,163,7.59,14.26,16.93,23.37,39.28,29.14,60.45q2.69,9.84,4.76,19.81c6-29.5-3.4-66.56-15.74-90.12-13.33-25.45-34.5-46.51-60.68-58.56-36.34-16.73-78.22-14.53-113.6,3.51-4.65,2.37-53.15,25.72-50.94,30l-13.6-26.3L0,319.91Z"/><path class="cls-1" d="M2012.21,364.13s12.59,3,33.14,9.49c-47.85,40.1-121.18,42.1-163-7.6-14.25-16.92-23.37-39.27-29.13-60.44q-2.7-9.84-4.76-19.81c-6,29.5,3.4,66.56,15.74,90.12,13.33,25.45,34.5,46.51,60.68,58.56,36.33,16.72,78.21,14.52,113.59-3.51,4.66-2.37,53.15-25.72,51-30l13.6,26.31,48.46-142.36Z"/><path class="cls-1" d="M454.33,69.27c0,5.43-1.14,18.36-3.12,25.66h10.42v7.71H422.21v12.41h33.06v24h-8.76V122.77H378.73v-7.72h34.62V102.64H373.93V94.93h69a144.41,144.41,0,0,0,2.5-24.82V69.8H380.19V62.08h74.14Z"/><path class="cls-1" d="M506.65,93.78c18.57,0,27.22-2.4,36.92-7V61.87h8.86v40.46h-8.86V92.74c-7.4,5.32-20.55,7.61-34.73,7.61H475.16V77.93H515V69H475.16V62.39h48.7V84.5H484v9.28Zm-18.87,21.9h55.79v-7.09h8.86v30h-8.86v-5c-6.26,3.75-17,5-31.08,5H479v-30h8.76Zm0,15.85h23.88c14.7,0,23.25-.94,31.91-3.44v-5.63H487.78Z"/><path class="cls-1" d="M615.49,109v13.46h-8.86V109H566.79v-7.5h87.7V109Zm1.77-48.59v3.34a20.63,20.63,0,0,1-1.46,7.3c6.36,6.25,18.67,12.62,34.83,16.37v7.3c-11.16-.52-31.07-8.34-40.35-15.33-7,7.4-19.5,13.56-39,15.23v-7.1c22-3.75,36.39-12.72,36.39-24.5V60.41Zm31.91,68.1v6.15c-5.31,3-17.62,4-29.93,4H573.67V117.14h8.77V130.8h35.45C631.76,130.69,643.23,129.65,649.17,128.51Z"/><path class="cls-1" d="M705.35,89.82c3.55,3.75,9.59,8,18.14,11.47v6.46c-8.86-1.14-19.39-6.46-25.44-11.78a71.35,71.35,0,0,1-33.27,12.41V102c15.23-3.34,35.67-13.35,42.13-29.3H667.19V65.83h20.64V56.76h8.86v9.07h21.07C716.51,75.53,711.71,83.56,705.35,89.82Zm41.82,39.1v5.53c-5.43,3-18.77,4.17-29.93,4.17H675v-22h8.77v14.6h32C728.19,131.22,738.41,130.69,747.17,128.92Zm-24.72-41V80.85h14v-19h8.86v54.54h-8.86V87.94Z"/><path class="cls-1" d="M799.8,71.15H770.6v55.69h8.13c14.81,0,25-1.78,32.85-5.42V61.87h8.55V92h14.71V61.87h8.55v76.44h-8.55V99.41H820.13v38.9h-8.55V128.19c-7.92,4.7-19.92,6.05-30.66,6.05H761.84V63.75h38Z"/><path class="cls-1" d="M910.72,86.38c0,12.72-11.57,19.08-25.86,19.08S859.1,99.52,859.1,86.38c0-6.16,3-11.06,8.45-14.18H856.91V65.31h23.68V56.76H889v8.55H912.7V72.2H902.48A15.67,15.67,0,0,1,910.72,86.38ZM935,139h-8.24V119.43H861.61v-7.19H935ZM901.55,85.85c0-7.5-5.74-13.24-16.69-13.24-10.53,0-16.68,5.63-16.68,13.24S875,98.06,885,98.06,901.55,93,901.55,85.85ZM935,79.49h10.84v7.3H935V106h-8.76V61.87H935Z"/><path class="cls-1" d="M1039.16,136.22h-87.7V128.4h21.28V99.93h8.86V128.4h18.46V99.93h8.76V128.4h30.34Zm-8.34-60.06c0,13.35-2.19,30.66-5.42,38.27h-8.24c2.82-10,4.49-21.9,4.8-38.59V71.67H957.72V63.85h73.1Z"/><path class="cls-1" d="M1162.18,136.22h-87.7V128.4h35.35V108.27h8.86V128.4h43.49Zm-8.35-59c0,13.35-2.19,30.66-5.42,38.27h-8.24a116.26,116.26,0,0,0,3.34-17.1h-62.26V90.55h63.09c.32-4.17.53-8.66.63-13.66V71.67h-64.24V63.85h73.1Z"/><path class="cls-1" d="M1207.2,94.41c18.45,0,29.82-1,36.91-4.9V61.87H1253v42h-8.86v-8c-6.88,4.48-20.54,5.52-34.73,5.52H1175.7V62.91h50.37v7h-41.61V94.41Zm-28.58,29.82c0-7.71,4.28-15.12,22-15.12H1233c17.63,0,21.9,7.41,21.9,15.12,0,8.24-4.79,15.12-21.79,15.12h-32.54C1183.42,139.35,1178.62,132.47,1178.62,124.23Zm56.11,7.61c9.48,0,11-4.69,11-7.4s-.84-7.82-10.74-7.82h-36.5c-9.7,0-10.64,5-10.64,7.82s1.46,7.4,10.74,7.4Z"/><path class="cls-1" d="M1315.62,89.09v9.8H1355v7h-87.7v-7h39.42v-9.8h-32.12v-27h72V69.9H1283.4V81.27h64.23v7.82Zm-45,37.33c0-7.51,4.28-12.2,22.21-12.2h36.08c17.83,0,22.11,4.69,22.11,12.2,0,8-4.8,12.2-22,12.2h-36.29C1275.37,138.62,1270.57,134.45,1270.57,126.42Zm58,5c8.86,0,13-1.05,13-4.9,0-3.65-3.44-5.11-12.82-5.11h-36.19c-9.07,0-12.61,1.46-12.61,5.11,0,4,4.17,4.9,12.82,4.9Z"/><path class="cls-1" d="M1420.18,99c0,23.57-7.09,37.44-26.9,37.44-20,0-26.91-13.35-26.91-37.44,0-23.36,7-37.53,26.91-37.53S1420.18,75.74,1420.18,99Zm-9.39,0c0-17.2-2.91-29.92-17.51-30-14.19.11-17.52,12.83-17.52,30s3.12,29.93,17.52,29.93C1407.46,128.92,1410.79,115.89,1410.79,99Zm33,39.32H1435V61.87h8.76V88.15h10.84v7.3h-10.84Z"/><path class="cls-1" d="M1496,126.84c17.11,0,25.86-2,34.83-6V61.87h8.87v76.44h-8.87V128c-7.71,4.37-19.71,6.25-32.64,6.25h-35.76V94.09h38.89V71.15h-38.89v-7.4H1510V101.5h-38.79v25.34Z"/><path class="cls-1" d="M1665.69,136.22H1578V128.4h35.35V108.27h8.86V128.4h43.48Zm-8.34-59c0,13.35-2.19,30.66-5.42,38.27h-8.24a115,115,0,0,0,3.34-17.1h-62.26V90.55h63.09c.32-4.17.53-8.66.63-13.66V71.67h-64.24V63.85h73.1Z"/><path class="cls-1" d="M1727.92,134.24h-48.7V63.75h48.7Zm-8.87-63.09h-31v55.69h31Zm35.35,67.16h-8.75V61.87h8.75V88.15h10.85v7.3H1754.4Z"/><path class="cls-1" d="M522.58,218.2l-11.93,1.18.06-2.07L497,191.86h0l-17.45,2.49H466.74l-17.67-2.47-.18,6.26-23.08,2.29h-10.6l-7.65-12.58h0l-17.44,2.48H377.3l-17.65-2.47-.4,12.57H341.1l-24.53-2.37.7,3.74c.17,1,.34,1.91.5,2.82s.3,1.79.44,2.64.27,1.66.39,2.44.24,1.54.35,2.26.22,1.41.32,2.11.2,1.4.29,2.09.16,1.38.24,2.07.15,1.35.21,2,.11,1.35.15,2,.08,1.38.1,2.07.05,1.4.07,2.11,0,1.42,0,2.15,0,1.49,0,2.27,0,1.6-.05,2.44,0,1.69-.06,2.58-.06,1.8-.09,2.73L320,242l7,9.8c0,.54-.07,1.1-.09,1.66-.05,1.44,0,2.85.05,4.22a43.26,43.26,0,0,0-1.82-4c-.27-.53-.55-1-.85-1.56s-.58-1-.89-1.51-.62-1-.94-1.48-.66-1-1-1.44l-17.68-24.83.5.72A52.81,52.81,0,0,0,292,210.92q-2.44-1.77-5.08-3.36t-5.45-2.94q-2.83-1.37-5.83-2.5c-2-.76-4.05-1.45-6.16-2.05s-4.24-1.14-6.4-1.59-4.34-.83-6.54-1.14-4.41-.53-6.64-.68-4.48-.22-6.74-.22q-6.59,0-12.83.61a113.58,113.58,0,0,0-12.12,1.82,101.51,101.51,0,0,0-11.35,3,90.9,90.9,0,0,0-10.56,4.25,79.13,79.13,0,0,0-9.86,5.57,83.7,83.7,0,0,0-9.11,7,90.29,90.29,0,0,0-8.34,8.37,103.51,103.51,0,0,0-7.54,9.74l-1.81,2.63h0l20.65,24.49,11.43,5.61,9.84,7.8h0l9.61,11.44h0l2.15-3.29c.54-.83,1.11-1.64,1.69-2.42l.51-.67c.46-.61.93-1.19,1.41-1.77l.48-.56c.63-.73,1.28-1.44,1.95-2.12l.29-.29c.6-.6,1.22-1.18,1.85-1.74l.42-.38c.7-.61,1.41-1.2,2.15-1.76l.46-.35q1-.76,2.07-1.47l.33-.22c.78-.51,1.58-1,2.4-1.46.18-.11.37-.21.56-.31.84-.47,1.69-.91,2.56-1.33a53.68,53.68,0,0,1,6.24-2.48,59,59,0,0,1,6.78-1.77,72,72,0,0,1,7.3-1.06c2.52-.24,5.13-.35,7.81-.35.41,0,.81,0,1.21,0-.12.15-.24.31-.36.45-.58.65-1.21,1.28-1.89,1.91s-1.39,1.22-2.16,1.81-1.57,1.17-2.43,1.72-1.75,1.1-2.69,1.62l-87.14,48.79-.16,1.48c-.21,1.7-.44,3.39-.7,5.09s-.55,3.38-.87,5.06-.65,3.36-1,5-.76,3.33-1.17,5-.87,3.28-1.37,4.93-1,3.31-1.59,5-1.18,3.33-1.82,5-1.32,3.35-2,5l-1.95,4.61h0l20.9,22,16.7-2.75H310.77l15.1,2.51.4-3c.14-.93.27-1.84.41-2.74s.28-1.78.42-2.64.28-1.73.42-2.57.28-1.66.42-2.48.29-1.59.44-2.38.31-1.58.48-2.36.33-1.55.5-2.32.34-1.54.52-2.3.34-1.51.53-2.27.39-1.52.6-2.28.43-1.54.66-2.32.46-1.56.7-2.34.49-1.62.75-2.46.52-1.7.8-2.59.55-1.78.85-2.71l.9-2.85.18-.57,14.54,19.09,14.79-2.45,79.1,0-.13,4.5,2.19-.31-2.19.31,14.87,22,17.16-2.45,12.65-.05,17.48,2.52,2.6-100.44,1.17,0,15.08,2.49.38-2.94c.12-.92.25-1.83.38-2.72s.26-1.77.39-2.63.27-1.71.4-2.54.27-1.66.41-2.47.27-1.58.42-2.37l.45-2.33q.24-1.17.48-2.31l.51-2.29q.24-1.11.51-2.25c.18-.75.37-1.5.58-2.27s.41-1.52.63-2.29.45-1.55.69-2.33l.73-2.45c.21-.71.44-1.45.66-2.2l6.69,12.5L554.2,263H583l-2.3,100.28h0l12,22.07,17.16-2.46,12.66,0,17.51,2.51,3.42-166-10.9-25.42-17.46,2.49-72.37,0-24.84-2.42,3.72,14.66c.2.8.39,1.59.58,2.37s.36,1.57.53,2.34.34,1.55.49,2.31.3,1.53.44,2.29.25,1.55.37,2.33c.05.34.1.69.16,1l-1.63-3.07M170.3,324h0c.06-.43.13-.86.18-1.29h0C170.43,323.16,170.36,323.59,170.3,324Zm167.87-42.34-.15-.12-.4-.37Zm-1.71-1.58c-.08-.09-.18-.16-.26-.25s-.21-.24-.33-.36Zm-1.59-1.7c-.1-.12-.22-.24-.33-.36l-.21-.28ZM304.54,224c.07.12.16.23.23.34.33.5.65,1,1,1.51l.2.34C305.49,225.4,305,224.67,304.54,224Zm1.64,2.61c.16.27.32.52.47.79.29.52.58,1.05.86,1.58C307.09,228.13,306.64,227.34,306.18,226.56Zm13.27,91.24L308,318.93c.61-.45,1.21-.9,1.8-1.36l.54-.43.69-.54,1.13-1,.24-.19.07-.07c.67-.57,1.31-1.15,1.94-1.73l.45-.43,1.53-1.5c.07-.08.16-.16.24-.24l.1-.11.12-.12.63-.68c.16-.17.33-.34.48-.51l.08-.09c.25-.28.49-.56.73-.85s.3-.33.44-.5l.05-.06c.26-.31.51-.63.76-.94l.36-.45,0,0c.37-.48.72-1,1.06-1.44L322,305l.46-.68,0-.06.06-.08.35-.55.44-.7a.2.2,0,0,1,0-.08c.36-.6.71-1.21,1-1.83l.08-.13c.06-.12.11-.24.17-.35.16-.3.31-.58.46-.88l.27-.57.16-.32c0-.09.07-.18.12-.27l.48-1.11,2.61,10.69c.2.8.39,1.59.57,2.39s.35,1.57.52,2.35.32,1.56.47,2.33.29,1.54.42,2.31.23,1.55.35,2.34.23,1.57.34,2.37.22,1.59.32,2.39.2,1.62.29,2.43.18,1.68.26,2.53.18,1.73.26,2.61.17,1.78.25,2.7c0,.19,0,.39.05.59Zm8.14-24.21.19-.55c.48-1.53.88-3.11,1.22-4.73,0-.08.05-.17.07-.26s0-.09,0-.14c.15-.71.28-1.42.4-2.15,0-.25.07-.51.11-.77a2.33,2.33,0,0,0,0-.28l0-.25c.14-1,.25-2,.34-3a1.5,1.5,0,0,0,0-.2c0-.28,0-.56.07-.84l0-.42c0-.06,0-.12,0-.17s0-.17,0-.25c0-.28,0-.56,0-.85l0-.85a55.2,55.2,0,0,0-.16-6.59c0-.13,0-.25,0-.37a30.3,30.3,0,0,0,3.34,5.62c-.11-.14-.23-.28-.33-.42L347,295.49ZM701,191.8l9.49,25.46-3,170.08-17.53-2.51-12.66,0-17.16,2.46-10.62-22h0L653,191.82l17.72,2.47h12.84L701,191.8h0M1981,337.41l-.71-21.91,3.87-29.39-2.72.36-3.09-95.07-17.42,2.49h-13l-18-2.49h0l-11.13,17.92c.15-.62.32-1.24.49-1.87l3.86-14-24.84,2.44-81.18,0-25.21-2.43h0l-12.38,24.25,3.25-22.12-26.4,2.34-112.61,0-26.73-2.33h0l-9.41,25.46,5.13,26.93,1,53.47-2.29,14.95-6.72-.65h0l-9.2,23.08,4.31,14.56c.23.79.45,1.58.67,2.36s.43,1.55.63,2.32.39,1.54.56,2.3.35,1.52.5,2.27.34,1.54.5,2.31.31,1.55.46,2.34.3,1.57.44,2.36.28,1.59.41,2.4.26,1.64.39,2.49.26,1.7.39,2.57.25,1.76.37,2.66.25,1.81.37,2.75l.36,3,14.8-2.47h142.44l15.38,2.52,13.11-22.15.24-3c.08-.95.17-1.89.26-2.81s.17-1.82.27-2.71.18-1.76.28-2.63.19-1.71.29-2.54.2-1.64.31-2.45.23-1.61.34-2.41.24-1.59.37-2.38.24-1.58.37-2.36.28-1.54.44-2.32.32-1.56.5-2.34.35-1.58.54-2.38c0-.18.09-.37.14-.55l1,5.53.59,21.66-4,27.74,26-2.31,123.48,0,26.43,2.33,17.19-22.13ZM1778.8,318l6.73-12.1-5.45-27.72-1.39-54.53.54-3.64,4.21,12.72c.23.71.46,1.42.67,2.13s.43,1.41.63,2.12.39,1.41.57,2.12.36,1.4.53,2.1.32,1.39.48,2.1.31,1.41.46,2.12.3,1.42.44,2.14.29,1.44.42,2.16.27,1.47.4,2.23.23,1.36.35,2l-8.34,15.63,8.6,39.21h3.59l-.54,1,1.29,6.81Zm135.87-80.38v0l.11,3.5-2.45.25Zm-7.58,59.43,7.55-11.46h0l.22-3c.08-.93.16-1.84.24-2.74s.18-1.77.26-2.62.18-1.69.28-2.51c0-.34.08-.67.11-1l.7,23.36ZM941.15,191.73l-17.46,2.48H910.82l-17.77-2.47-1.33,124.48,1,4.09H825.05l.07-5.52-.6-2,40.13,0,15.17,2.49.34-2.94c.11-.93.23-1.84.34-2.73l.36-2.64c.12-.86.25-1.71.37-2.55s.25-1.66.37-2.47.25-1.59.39-2.38.28-1.57.42-2.34l.45-2.32c.15-.77.31-1.53.47-2.29s.31-1.5.49-2.26.35-1.51.54-2.27.4-1.54.61-2.31.43-1.55.66-2.34.45-1.61.69-2.45.49-1.69.74-2.57l.79-2.7c.27-.92.55-1.87.84-2.84l1.12-3.88-5.74-24.45h0L859.35,247h-8.52a.62.62,0,0,0,0-.13l.34-27.6-6.54-25.44h0l-17.45,2.48H814.33l-17.75-2.48-.41,28.15a34.77,34.77,0,0,1-.62,6.22,26.23,26.23,0,0,1-1.66,5.43,23.27,23.27,0,0,1-2.71,4.7,24,24,0,0,1-3.77,4,22.86,22.86,0,0,1-5.08,3.13,36.3,36.3,0,0,1-6.54,2.22,60.35,60.35,0,0,1-8,1.33c-2.9.29-6,.44-9.42.44l-3.54-.05,7.08,41.92h0L767.45,307l1.88,12L769.06,337l-5.24,28.21,8.25,22,26.1-2.3H924.56l15.22,2.52.33-3c.11-.93.23-1.84.34-2.74s.24-1.78.36-2.65.24-1.73.36-2.57.24-1.67.36-2.49.25-1.6.39-2.39.27-1.58.42-2.36.29-1.55.44-2.33.31-1.54.47-2.3.31-1.51.48-2.27.35-1.52.54-2.29.4-1.54.61-2.32.42-1.56.65-2.35.45-1.62.69-2.47.48-1.7.74-2.58.51-1.79.78-2.72.55-1.88.84-2.86l1.11-3.9-4.49-23-.37,0,.16-18.46,1.8,9.4,3.63,13.47c.08.59.15,1.17.22,1.77.11.88.21,1.78.32,2.7s.2,1.84.3,2.79l.28,3,4.36,22.7,14.79-2.45h3.51l-.09,12.53h0L978,387.43,995.21,385l12.69,0,17.6,2.52.18-34.6h30l0,12.54h0l2.2,22.07,17.21-2.46,12.7-.05,17.61,2.52.08-34.6,6.9-.05,15.24,2.51.31-3c.1-.93.21-1.84.32-2.74s.22-1.78.33-2.65.23-1.72.35-2.56.23-1.67.34-2.48.24-1.6.37-2.39.26-1.57.4-2.35.28-1.56.43-2.33l.45-2.3c.14-.75.3-1.5.46-2.26s.34-1.52.53-2.29.38-1.54.59-2.31.41-1.56.63-2.35l.67-2.46c.24-.84.47-1.7.72-2.58s.5-1.78.77-2.71.53-1.88.81-2.85l1.08-3.9-.52-23.66-16.14,1.59.11-67.64-.87-25.46-17.46,2.49-120.58,0-24.94-2.43h0L961,219.24l3.91,14.39c.21.78.41,1.56.61,2.33,0,.14.06.28.1.42,0,.48.1,1,.15,1.46l.29,3,.57-.09-.57.09,4.05,24.53,14.73-2.44h86.47l-.07,20.66.32,4.08H967.28l-22.17-2.17.58-68.27-4.54-25.48m22.13,28.17c0,.07,0,.15.05.23a.5.5,0,0,0,0,.12C963.33,220.13,963.3,220,963.28,219.9Zm.43,2.39,0,.19,0,.21Zm224,141.08,14.79-2.45H1250l.1,26.59,17.21-2.46L1280,385l17.65,2.52,2.88-22.07h0l0-4.52,43.88,0,15.29,2.51,4.2-22.57.29-3c.09-.95.19-1.88.3-2.8s.21-1.81.31-2.7c0-.29.07-.57.11-.85l0-.07.65-2.46c.22-.84.46-1.7.69-2.58s.49-1.79.75-2.72.52-1.88.79-2.86l1-3.9,1.4-7.48.33,1.3c.27,1.14.52,2.31.75,3.53s.44,2.46.63,3.75.36,2.6.52,4l.27,2.7,1.48-.12,0,.22,5,23.36.24,15.57-4.67,23.79,26.09-2.36h129.09l15.34,2.52,8.15-22.09h0l.27-3c.09-.95.18-1.89.28-2.81s.19-1.82.29-2.71.21-1.76.31-2.62.21-1.71.32-2.54.21-1.64.33-2.45l.36-2.41.39-2.38.39-2.36c.15-.77.3-1.54.46-2.32s.34-1.56.52-2.34.37-1.58.57-2.37.4-1.6.61-2.4l3.9-14.86-7.38.73.11-.32-2-126.8L1535.7,194h-12.92l-18-2.48h0l-4.74,17.09h-9.15a30.94,30.94,0,0,0-3.78-4.08,34.09,34.09,0,0,0-4.59-3.47,40.2,40.2,0,0,0-5.37-2.87A49.06,49.06,0,0,0,1471,196c-2.24-.66-4.61-1.24-7.13-1.73s-5.16-.9-7.94-1.23-5.69-.58-8.72-.74-6.2-.25-9.48-.25c-2.25,0-4.45,0-6.6.12s-4.24.2-6.27.35-4,.35-5.93.59-3.76.51-5.54.83-3.57.68-5.25,1.09-3.31.87-4.85,1.38-3,1.06-4.43,1.67-2.74,1.25-4,1.94a38.82,38.82,0,0,0-3.7,2.34A33.9,33.9,0,0,0,1388,205a30.31,30.31,0,0,0-2.78,3,28.35,28.35,0,0,0-2.31,3.34,27.87,27.87,0,0,0-1.82,3.72,29.29,29.29,0,0,0-1.3,4.07c-.17.68-.31,1.38-.44,2.09,0,0,0-.07,0-.11h0l-4.5,24.94c-.1.56-.19,1.12-.26,1.69s-.13,1.15-.18,1.74-.08,1.18-.11,1.78,0,1.22,0,1.84a39.12,39.12,0,0,0,.31,4.68,34,34,0,0,0,.82,4.34,30.2,30.2,0,0,0,.95,2.92l-9.6-.46-4.24,24.08,1.67,4c.22.52.42,1,.63,1.52l-6.6.66.56-3.27h0l-5-27.85-.37-41.42.52-3.16,4-25.48-22.2,2.44h-12.9L1305,193.64h0l-1.54,13.22-57.7,0,0-13.23-17.46,2.49h-13l-22.51-2.43h0l-.64,25.47,4.67,27h0l.06,22-4,23.41-.09,3.18-14.31-1.4h0l-.34,23.5,4,14.52c.22.79.43,1.57.64,2.35s.4,1.55.58,2.31.37,1.53.53,2.29.32,1.51.46,2.27.31,1.53.45,2.3.29,1.55.43,2.33.27,1.56.4,2.35.25,1.59.37,2.39.23,1.65.34,2.49.23,1.69.35,2.56.22,1.75.33,2.65.21,1.81.32,2.74l.31,3m179.66-47.31c.05-.26.09-.52.15-.78l0-.16Zm.5-2.35c.05-.25.11-.51.17-.77,0,0,0-.07,0-.1C1368,313.13,1367.89,313.42,1367.83,313.71Zm.58-2.46c.06-.22.11-.44.16-.67l0-.06Zm10.35-82.93c0-.63,0-1.26,0-1.87,0-.11,0-.21,0-.32C1378.77,226.85,1378.75,227.58,1378.76,228.32Zm.08-2.85c0-.28,0-.57.05-.85s0-.44.07-.66C1378.91,224.46,1378.87,225,1378.84,225.47Zm.19-2.19c0-.14,0-.29,0-.43.06-.41.12-.8.19-1.2C1379.17,222.18,1379.09,222.73,1379,223.28Zm115.81,97.09,4.1-13.65.18,13.65Zm-115.5-99.24Zm0,0Z"/><path class="cls-2" d="M1311.1,239.76l.09,16.44h-71.11l0-16.43Zm-5.78,10.79,0-5.14h-59.4v5.13h59.42m-807.4-29.91,24.66-2.44-1.18,4-.9,2.89c-.29.94-.58,1.85-.85,2.75l-.79,2.61-.74,2.49c-.24.8-.48,1.59-.7,2.38s-.45,1.57-.66,2.34-.4,1.55-.59,2.32-.36,1.53-.52,2.29-.35,1.55-.52,2.33-.33,1.57-.49,2.36-.31,1.58-.46,2.38-.3,1.61-.43,2.42-.28,1.66-.42,2.51-.27,1.72-.41,2.6-.27,1.77-.4,2.68-.27,1.83-.4,2.77l-.38,3-15.4-2.54-1.19,0-2.72,102.47-17.85-2.56-12.91.05-17.52,2.5.77-27.06H348.35l-15.11,2.5-.21-3c-.07-.94-.15-1.87-.23-2.78s-.16-1.82-.25-2.7-.17-1.75-.26-2.61-.17-1.7-.26-2.53-.19-1.62-.29-2.43-.21-1.6-.32-2.39-.22-1.59-.34-2.37-.23-1.57-.35-2.35-.27-1.53-.42-2.3-.31-1.55-.47-2.33-.34-1.57-.52-2.36-.37-1.58-.57-2.39l-3.61-14.76L350,295.79h126.8l8.76-1.22-9.11-1.32-12.88.05-17.47,2.49,2.6-91.58c-.18.72-.34,1.42-.51,2.1l-.46,2c-.15.65-.29,1.27-.42,1.88s-.26,1.2-.38,1.77-.32,1.41-.46,2.11-.28,1.4-.41,2.09-.26,1.38-.37,2.06-.23,1.36-.34,2-.19,1.32-.27,2-.16,1.37-.23,2.07-.13,1.4-.18,2.12-.1,1.43-.13,2.15-.09,1.49-.13,2.28-.07,1.6-.1,2.43-.06,1.7-.08,2.59-.05,1.8-.08,2.73l-.1,3.35-9.49-1.52a30.46,30.46,0,0,1,.9,3q.39,1.56.63,3.18c.16,1.09.27,2.2.33,3.32s.08,2.28.05,3.45a45,45,0,0,1-1.15,9.06,36.07,36.07,0,0,1-2.9,8,34.19,34.19,0,0,1-4.61,6.9,37.08,37.08,0,0,1-6.31,5.76,42.9,42.9,0,0,1-7.85,4.42,58.46,58.46,0,0,1-9.5,3.16A84.43,84.43,0,0,1,393,292.66a121.52,121.52,0,0,1-12.73.64,118.32,118.32,0,0,1-12.58-.64,80.77,80.77,0,0,1-11-1.91,54.81,54.81,0,0,1-9.25-3.16,39.36,39.36,0,0,1-7.53-4.42,33.36,33.36,0,0,1-6-5.76,30.48,30.48,0,0,1-4.18-6.89,34.4,34.4,0,0,1-2.39-8,44.32,44.32,0,0,1-.58-9.06c0-1.21.12-2.38.24-3.52s.29-2.26.5-3.34.46-2.13.75-3.15.63-2,1-3L320,242l.11-3.35c0-.93.06-1.85.09-2.73s0-1.75.06-2.59,0-1.64.05-2.43,0-1.54,0-2.28,0-1.43,0-2.14,0-1.41-.07-2.11-.06-1.38-.1-2.07-.09-1.36-.15-2-.14-1.34-.21-2l-.24-2.06c-.09-.69-.18-1.39-.29-2.09s-.21-1.4-.32-2.11-.22-1.47-.35-2.26-.25-1.6-.39-2.44-.29-1.73-.44-2.64-.33-1.85-.5-2.82l-.7-3.74,24.53,2.37h18.15l.4-12.57,17.65,2.47h12.82l17.44-2.48-.38,12.58h18.63l23.08-2.28.18-6.26,17.67,2.47h12.83L497,191.86l-.76,28.78Zm-56.64-9.76c.12-.48.24-1,.36-1.48l.37-1.59q.18-.81.39-1.68t.42-1.77L426,206H401.27l.36-11.67-11.27,1.52-13.65.05-11.53-1.61-.37,11.72H340.6l-17-1.67c.09.61.19,1.2.28,1.78s.19,1.13.29,1.67.18,1.07.26,1.59.17,1,.24,1.48q.18,1.13.33,2.22t.27,2.19q.14,1.08.24,2.16c.08.71.15,1.43.22,2.13s.12,1.43.17,2.16.08,1.46.11,2.2.06,1.48.07,2.23,0,1.51,0,2.27c0,.53,0,1.07,0,1.63s0,1.11,0,1.68,0,1.16-.05,1.75,0,1.21-.06,1.83l14.31-2.28-3.38,5.22a21.86,21.86,0,0,0-1.74,3.2,27,27,0,0,0-1.28,3.61,32.34,32.34,0,0,0-.83,4,40.18,40.18,0,0,0-.38,4.36,39.19,39.19,0,0,0,.47,7.8,28.57,28.57,0,0,0,2,6.77,25.57,25.57,0,0,0,3.49,5.78,28.55,28.55,0,0,0,5,4.84,34.6,34.6,0,0,0,6.78,3.91,51.09,51.09,0,0,0,8.43,2.82,76.86,76.86,0,0,0,10.06,1.7,111.94,111.94,0,0,0,11.65.57,114.61,114.61,0,0,0,11.77-.57,79.62,79.62,0,0,0,10.23-1.7,54.18,54.18,0,0,0,8.65-2.82,36.62,36.62,0,0,0,7-3.92,30.72,30.72,0,0,0,5.34-4.84,27.63,27.63,0,0,0,3.86-5.78,30,30,0,0,0,2.41-6.77,40.61,40.61,0,0,0,1-7.8,32.55,32.55,0,0,0-.13-4.22,29.18,29.18,0,0,0-.63-3.94,25.57,25.57,0,0,0-1.15-3.66,23.62,23.62,0,0,0-1.64-3.35l-3-5.17,14.33,2.23q0-.93.06-1.83c0-.59.05-1.18.08-1.75s.05-1.13.08-1.69,0-1.09.08-1.62c0-.77.08-1.54.14-2.3s.12-1.51.19-2.25.15-1.47.25-2.19.19-1.43.3-2.12.23-1.42.35-2.14.25-1.43.39-2.16.27-1.45.41-2.18.29-1.48.44-2.23M486.83,358.7l1.57-58.83-11.32,1.53-127.55,0-16.82-1.63,1.7,6.83c.19.83.38,1.65.56,2.47s.36,1.64.53,2.46L336,314c.16.8.3,1.61.45,2.41s.25,1.59.38,2.39.24,1.62.35,2.44.22,1.65.32,2.48.2,1.68.29,2.54q.11.92.21,1.86c.07.64.14,1.28.2,1.93s.13,1.31.2,2,.12,1.35.17,2l9.51-1.53,102.79,0-.73,26.13,11.29-1.59h13.74l11.68,1.64m25.78-127.28.48-1.62c.16-.55.33-1.11.5-1.68s.34-1.14.52-1.72l.54-1.76-16.57,1.62h-7.72l.75-27.88-11.27,1.52-13.67.06-11.54-1.62-2.56,90.89,11.26-1.58H477l11.64,1.63.86-32.13H497l9.87,1.58c.11-.69.21-1.36.32-2s.2-1.32.3-2,.21-1.29.31-1.91.2-1.25.31-1.86c.15-.85.3-1.69.46-2.52s.31-1.66.47-2.47.32-1.62.49-2.42.36-1.6.55-2.38.36-1.6.55-2.41.4-1.61.62-2.42.44-1.63.68-2.44.47-1.64.73-2.47m-130.46,2.41a17.94,17.94,0,0,1,2.79.21,15.34,15.34,0,0,1,2.53.62,12.68,12.68,0,0,1,2.27,1.05,11.84,11.84,0,0,1,2,1.46,10.42,10.42,0,0,1,1.68,1.91,10.63,10.63,0,0,1,1.18,2.24,12.09,12.09,0,0,1,.68,2.55,15.85,15.85,0,0,1,.16,2.88,15.68,15.68,0,0,1-.34,2.91,13,13,0,0,1-.83,2.58,11.67,11.67,0,0,1-1.32,2.24,12.4,12.4,0,0,1-1.79,1.91,13.5,13.5,0,0,1-4.42,2.52,15.2,15.2,0,0,1-2.58.63,18.84,18.84,0,0,1-5.61,0,15.35,15.35,0,0,1-2.53-.64,11.74,11.74,0,0,1-4.19-2.55,10.33,10.33,0,0,1-1.61-1.9,10.55,10.55,0,0,1-1.11-2.23,12.38,12.38,0,0,1-.62-2.57,16.94,16.94,0,0,1-.15-2.89,17.24,17.24,0,0,1,.33-2.86,13.13,13.13,0,0,1,.78-2.56,12.15,12.15,0,0,1,1.25-2.23,11.74,11.74,0,0,1,1.72-1.88,13.06,13.06,0,0,1,2.06-1.5,13.19,13.19,0,0,1,2.32-1.06,15,15,0,0,1,2.56-.63A18.17,18.17,0,0,1,382.15,233.83Zm5.29,18.35a5.75,5.75,0,0,0,.95-1,6.16,6.16,0,0,0,.68-1.24,7.1,7.1,0,0,0,.43-1.46,11.21,11.21,0,0,0,.18-1.71,10,10,0,0,0-.08-1.67,7.15,7.15,0,0,0-.34-1.45,5,5,0,0,0-.61-1.23,4.75,4.75,0,0,0-.88-1,6.51,6.51,0,0,0-1.15-.86,7.09,7.09,0,0,0-1.34-.6,9,9,0,0,0-1.55-.35,12.13,12.13,0,0,0-1.75-.12,12,12,0,0,0-1.73.12,8.67,8.67,0,0,0-1.52.35,7,7,0,0,0-1.34.58,6.88,6.88,0,0,0-1.17.83,5.14,5.14,0,0,0-.9,1,6.1,6.1,0,0,0-.66,1.24,7.78,7.78,0,0,0-.4,1.46,11.21,11.21,0,0,0-.18,1.71,12,12,0,0,0,.07,1.73,8.06,8.06,0,0,0,.31,1.48,5.43,5.43,0,0,0,.58,1.24,4.86,4.86,0,0,0,.84,1,6,6,0,0,0,1.11.83,7.07,7.07,0,0,0,1.31.59,9.54,9.54,0,0,0,1.51.35,13.17,13.17,0,0,0,1.71.11,14.13,14.13,0,0,0,1.77-.11,9.72,9.72,0,0,0,1.57-.36,7.78,7.78,0,0,0,1.38-.6,6.74,6.74,0,0,0,1.2-.86M294.7,320.24l24.75-2.44-1.22,4q-.48,1.49-.93,2.91t-.87,2.76q-.42,1.35-.81,2.64c-.27.85-.52,1.69-.77,2.5s-.49,1.61-.72,2.4-.46,1.58-.67,2.36-.42,1.56-.62,2.33-.37,1.54-.54,2.31l-.54,2.35-.51,2.37c-.16.8-.33,1.6-.48,2.4s-.31,1.62-.45,2.44-.29,1.67-.44,2.53-.29,1.73-.43,2.61-.29,1.79-.43,2.7-.28,1.85-.42,2.8l-.41,3-15.42-2.57-123.29,0-17,2.81,1.95-4.6c.72-1.67,1.4-3.35,2-5s1.25-3.34,1.82-5,1.1-3.33,1.59-5,.95-3.29,1.37-4.93.8-3.3,1.17-5,.7-3.35,1-5,.6-3.37.87-5.07.49-3.38.7-5.08l.16-1.48,87.14-48.79c.94-.52,1.84-1.06,2.69-1.62s1.67-1.13,2.43-1.72,1.49-1.2,2.16-1.82a26,26,0,0,0,1.89-1.9,12.35,12.35,0,0,0,1.36-1.9,13.72,13.72,0,0,0,1-2.23,16,16,0,0,0,.64-2.56,20.05,20.05,0,0,0,.29-2.9,12.75,12.75,0,0,0,0-1.76,12.19,12.19,0,0,0-.29-1.64,11.38,11.38,0,0,0-.53-1.52,10.29,10.29,0,0,0-.77-1.42,13.68,13.68,0,0,0-1-1.42,16,16,0,0,0-1.16-1.31,16.71,16.71,0,0,0-1.33-1.18,17.94,17.94,0,0,0-3.15-2c-.59-.3-1.19-.58-1.82-.83s-1.28-.48-1.95-.69-1.36-.4-2.06-.56-1.47-.34-2.21-.47-1.5-.24-2.25-.33-1.51-.16-2.27-.2-1.53-.07-2.29-.07q-4.11,0-8,.37a71.57,71.57,0,0,0-7.46,1.08,59.55,59.55,0,0,0-6.93,1.81,54.1,54.1,0,0,0-6.37,2.52,46.87,46.87,0,0,0-15.53,11.83,49,49,0,0,0-4,5.37l-2.2,3.35-9.8-11.67-10-8-11.67-5.72,1.81-2.63a103.51,103.51,0,0,1,7.54-9.74,90.29,90.29,0,0,1,8.34-8.37,83.7,83.7,0,0,1,9.11-7,77.88,77.88,0,0,1,9.86-5.57,89.16,89.16,0,0,1,10.56-4.25,101.51,101.51,0,0,1,11.35-3,113.58,113.58,0,0,1,12.12-1.82q6.24-.62,12.83-.61,3.39,0,6.74.22c2.23.15,4.45.38,6.64.68s4.38.68,6.54,1.14,4.29,1,6.4,1.58,4.17,1.29,6.16,2.05,3.94,1.6,5.83,2.51,3.7,1.89,5.45,2.94,3.45,2.18,5.08,3.36a52.52,52.52,0,0,1,4.66,3.84,50.87,50.87,0,0,1,4.15,4.29,52,52,0,0,1,3.63,4.73,54.3,54.3,0,0,1,3.08,5.15,43.81,43.81,0,0,1,2.44,5.61,46.69,46.69,0,0,1,1.69,6,50.78,50.78,0,0,1,.93,6.38,57.63,57.63,0,0,1,.16,6.73,62.61,62.61,0,0,1-.77,8,54.42,54.42,0,0,1-1.76,7.43,48.81,48.81,0,0,1-2.72,6.79,43.52,43.52,0,0,1-3.69,6.13,50.26,50.26,0,0,1-4.71,5.66,66,66,0,0,1-5.95,5.45,83.65,83.65,0,0,1-7.18,5.21q-3.88,2.55-8.37,4.95l-31.07,16.92Zm14.64,10.87c.16-.53.33-1.08.49-1.63s.34-1.12.52-1.69.35-1.15.53-1.74.37-1.18.56-1.77l-16.62,1.63H224.34L275,298.38q4.17-2.25,7.77-4.59t6.63-4.78a60.6,60.6,0,0,0,5.47-4.95,45,45,0,0,0,4.3-5.11,38.19,38.19,0,0,0,3.23-5.42,41.16,41.16,0,0,0,2.39-6,47.18,47.18,0,0,0,1.55-6.63,54.94,54.94,0,0,0,.69-7.19,52.23,52.23,0,0,0-.13-6,47.11,47.11,0,0,0-.82-5.7,42,42,0,0,0-1.5-5.34,39.5,39.5,0,0,0-2.18-5,48.73,48.73,0,0,0-2.76-4.63,46.2,46.2,0,0,0-3.25-4.24,46.8,46.8,0,0,0-3.73-3.86,50.32,50.32,0,0,0-4.19-3.46c-1.49-1.08-3-2.11-4.65-3.07s-3.29-1.87-5-2.7-3.52-1.6-5.37-2.3-3.75-1.32-5.7-1.88-4-1.07-6-1.49-4.06-.79-6.13-1.08-4.14-.5-6.24-.64-4.22-.22-6.35-.22q-6.25,0-12.17.58a109.06,109.06,0,0,0-11.47,1.72,95.13,95.13,0,0,0-10.72,2.85,84.49,84.49,0,0,0-10,4,73.18,73.18,0,0,0-8.55,4.79,77.82,77.82,0,0,0-8,5.95,82.75,82.75,0,0,0-7.34,7.08,94,94,0,0,0-6.72,8.19l6.79,3.39,10.64,8.51,5.3,6.24a53.68,53.68,0,0,1,4.18-4.92,52.06,52.06,0,0,1,4.7-4.34,51.73,51.73,0,0,1,10.88-6.81,55.79,55.79,0,0,1,7-2.79,65.72,65.72,0,0,1,7.55-2,79.47,79.47,0,0,1,8.11-1.2c2.8-.26,5.68-.4,8.64-.4.88,0,1.75,0,2.63.08s1.75.12,2.61.22,1.73.22,2.58.36,1.7.31,2.53.5,1.7.44,2.52.71,1.61.55,2.38.88,1.52.67,2.24,1,1.42.78,2.09,1.21a22.62,22.62,0,0,1,2,1.41,20.2,20.2,0,0,1,1.76,1.56,18.18,18.18,0,0,1,1.56,1.73,21.5,21.5,0,0,1,1.35,1.89,16.38,16.38,0,0,1,1.12,2.16,16.21,16.21,0,0,1,.77,2.29,15.9,15.9,0,0,1,.44,2.42,19.63,19.63,0,0,1,.08,2.56,26.36,26.36,0,0,1-.41,3.88,21.12,21.12,0,0,1-.93,3.5,18.75,18.75,0,0,1-1.46,3.1,17,17,0,0,1-2,2.72,31.43,31.43,0,0,1-2.22,2.26c-.79.74-1.63,1.45-2.52,2.15s-1.84,1.37-2.83,2-2,1.29-3.14,1.9l-84.5,47.33c-.21,1.63-.44,3.26-.7,4.89s-.54,3.26-.84,4.88-.64,3.23-1,4.84-.73,3.2-1.13,4.78c-.35,1.33-.72,2.66-1.11,4s-.8,2.68-1.24,4-.89,2.7-1.36,4.05-1,2.71-1.5,4.06l7.64-1.22,124.2,0,9.88,1.58.33-2c.11-.67.22-1.33.32-2s.22-1.3.32-1.93.22-1.26.33-1.87c.16-.86.32-1.7.48-2.54s.32-1.67.49-2.49.34-1.63.52-2.44.37-1.6.56-2.39.38-1.62.58-2.43.42-1.62.64-2.44.45-1.63.7-2.46.49-1.65.75-2.48M542.76,196.35l72.37,0,17.46-2.48L629,363.24l-17.88-2.57-12.92.05-17.52,2.51,2.87-124.82H541.41l-15,2.49-.23-3c-.08-.94-.17-1.86-.25-2.77s-.18-1.8-.27-2.67-.18-1.74-.28-2.59-.19-1.69-.28-2.51-.2-1.62-.31-2.41-.22-1.6-.34-2.38-.23-1.58-.35-2.35-.25-1.56-.37-2.33-.28-1.52-.44-2.29-.31-1.54-.49-2.31-.35-1.55-.53-2.34-.38-1.58-.58-2.37l-3.72-14.66Zm83.94,4-11.27,1.52-73.12.07-16.79-1.62,1.75,6.78c.2.82.39,1.64.58,2.46l.54,2.43c.17.81.34,1.62.5,2.42s.31,1.61.46,2.4.27,1.58.4,2.38.25,1.6.37,2.41.23,1.64.34,2.47.21,1.67.31,2.52c.07.61.15,1.22.22,1.85s.15,1.26.22,1.91.14,1.3.21,2,.13,1.34.19,2l9.47-1.52,48.37-.06-2.82,123.84,11.3-1.58h13.75l11.69,1.64,3.33-156.31m56.84-6.09L701,191.8l-3.19,173.5-17.89-2.56-12.93.05-17.52,2.5L653,191.81l17.72,2.48Zm8.61,164.46,3-160.42-11.28,1.52-13.68.06-11.57-1.62-3.21,160.4,11.29-1.58h13.77l11.7,1.64M962.89,217.8c-.14-.76-.29-1.53-.45-2.29s-.33-1.54-.52-2.32-.37-1.55-.57-2.34-.41-1.58-.62-2.38l-4-14.68,24.94,2.42,120.58,0,17.46-2.49-.15,89.88L1101.65,281l-12.92.05-17.52,2.5.16-45.24H981.08L966,240.83l-.29-3c-.09-.94-.19-1.86-.29-2.77s-.21-1.8-.32-2.68-.21-1.75-.32-2.6-.22-1.68-.33-2.51-.23-1.62-.35-2.42l-.39-2.38c-.13-.79-.27-1.57-.41-2.35S963,218.57,962.89,217.8Zm18.45-16-16.86-1.61,1.87,6.78c.21.83.42,1.65.62,2.46s.4,1.63.59,2.44.37,1.62.54,2.43.35,1.6.51,2.4.3,1.58.44,2.38.28,1.6.41,2.42.27,1.64.39,2.47.24,1.67.35,2.52c.08.61.17,1.23.26,1.85s.17,1.27.25,1.92.16,1.3.24,2,.16,1.34.23,2l9.47-1.52,96.57-.07-.15,44.3,11.26-1.58h13.76l11.67,1.63.14-76.81-11.22,1.52-121.34.08m-59.2,111.89H909.21l-17.49,2.5,1.33-124.48,17.77,2.47h12.87l17.46-2.49-1.1,124.5Zm-24.56-4.09,11.27-1.58h13.76l11.71,1.64,1-111.44-11.28,1.52-13.7.06-11.61-1.62-1.16,111.42m22.83,10.68,24.79-2.45-1.13,4c-.3,1-.58,2-.86,2.91s-.54,1.87-.8,2.77-.51,1.78-.75,2.64-.48,1.7-.71,2.51-.45,1.61-.66,2.4-.42,1.59-.62,2.37-.38,1.56-.56,2.34-.34,1.54-.49,2.31l-.48,2.35-.45,2.38c-.15.8-.29,1.6-.43,2.41s-.27,1.62-.39,2.44-.25,1.67-.38,2.53-.24,1.74-.37,2.62-.24,1.79-.36,2.71-.23,1.85-.34,2.8l-.34,3-15.55-2.56-129.06,0-26.65,2.35L769.06,337l.27-17.94L765,291.26h-3.07l-7.08-41.91,3.54.05q5.05,0,9.42-.44a60.35,60.35,0,0,0,8-1.33,36.3,36.3,0,0,0,6.54-2.22,22.86,22.86,0,0,0,5.08-3.13,24.84,24.84,0,0,0,3.77-4,23.27,23.27,0,0,0,2.71-4.7,26.51,26.51,0,0,0,1.66-5.44,34.56,34.56,0,0,0,.62-6.21l.41-28.15,17.75,2.47h12.86l17.45-2.48-.35,28.15c0,1.29-.07,2.58-.14,3.85s-.17,2.54-.3,3.79-.28,2.49-.45,3.72-.38,2.45-.6,3.65c-.17.87-.35,1.72-.55,2.57s-.41,1.7-.64,2.53-.47,1.66-.73,2.48-.52,1.63-.81,2.43h19.28l24.72-2.44-1.14,4c-.29,1-.58,1.95-.86,2.89s-.54,1.86-.8,2.76-.52,1.77-.76,2.62l-.71,2.5c-.23.8-.46,1.6-.67,2.39s-.42,1.57-.62,2.35-.38,1.55-.56,2.32-.34,1.54-.49,2.3-.33,1.56-.49,2.34-.31,1.57-.46,2.36-.29,1.59-.43,2.39-.27,1.61-.4,2.43-.25,1.67-.38,2.52-.25,1.72-.37,2.61-.25,1.77-.37,2.69-.24,1.83-.35,2.78l-.35,3-15.48-2.54-42,.05.16-11.57c-1.4.93-2.86,1.82-4.36,2.67s-3.07,1.64-4.67,2.4-3.26,1.47-5,2.14-3.44,1.29-5.23,1.86q-3.39,1.09-7.1,1.92c-2.47.55-5,1-7.7,1.4s-5.43.67-8.28.87-5.8.32-8.83.34l18,2.5h17.08l17.52-2.5-.4,29Zm14.92,10.89c.16-.54.32-1.08.48-1.64s.33-1.12.49-1.69.34-1.15.5-1.74.35-1.18.52-1.78L920.67,326H811.75l.39-28.13-11.32,1.58H782.91l-11.06-1.53,3.22,20.67-.23,18.86-3.93,21.44,19.48-1.73,129.67,0,10,1.59c.09-.69.19-1.38.28-2.05l.27-2c.1-.65.19-1.3.28-1.93s.18-1.26.28-1.87q.21-1.29.42-2.55c.14-.84.28-1.67.43-2.49s.3-1.64.46-2.45.33-1.6.5-2.4.34-1.61.52-2.42.38-1.63.58-2.45.41-1.64.62-2.47.44-1.65.67-2.48M761.65,255l5.13,30.58q4.14-.08,8-.38c2.58-.21,5.07-.48,7.48-.84s4.72-.78,6.94-1.28,4.36-1.08,6.4-1.73,4.23-1.47,6.24-2.31,3.93-1.74,5.77-2.71,3.61-2,5.28-3.1a55.17,55.17,0,0,0,4.77-3.49l4.84-3.91-.24,17.71h36.63l9.93,1.58c.08-.69.17-1.37.26-2s.19-1.32.28-2,.2-1.29.29-1.92.2-1.25.3-1.86c.14-.86.28-1.7.42-2.53s.29-1.66.44-2.48.3-1.63.46-2.43.33-1.6.51-2.39.34-1.6.52-2.41.38-1.62.58-2.43.41-1.63.63-2.45.44-1.65.67-2.47c.16-.54.32-1.08.49-1.63s.32-1.12.49-1.68.33-1.15.5-1.73.34-1.18.52-1.77l-16.6,1.62H831.48l1.71-3.91c.44-1,.86-2,1.24-3.06s.74-2.08,1.06-3.14.63-2.13.89-3.22.51-2.18.72-3.28.42-2.25.59-3.39.31-2.31.43-3.48.21-2.36.28-3.56.11-2.4.12-3.62l.28-21.62-11.27,1.52-13.7,0-11.59-1.61-.31,21.67a39.91,39.91,0,0,1-.77,7.42,31.39,31.39,0,0,1-2.07,6.58,27.71,27.71,0,0,1-3.36,5.72,28.69,28.69,0,0,1-4.65,4.84,28.14,28.14,0,0,1-5.42,3.58,38.19,38.19,0,0,1-6.69,2.61,56.23,56.23,0,0,1-8,1.65,82.6,82.6,0,0,1-9.33.69m350.21,32.62,24.77-2.45-1.1,4c-.29,1-.56,2-.83,2.91s-.53,1.86-.78,2.76-.5,1.78-.74,2.64-.46,1.69-.69,2.51-.43,1.6-.64,2.39-.41,1.58-.6,2.36-.37,1.56-.54,2.33-.33,1.55-.47,2.31-.31,1.56-.46,2.35-.3,1.58-.44,2.37-.28,1.6-.41,2.4-.26,1.62-.37,2.44-.24,1.67-.36,2.53-.23,1.73-.35,2.62-.23,1.78-.34,2.7-.22,1.84-.33,2.79l-.31,3-15.57-2.56-7,.05-.08,35.31-18-2.57-13,0-17.57,2.51.14-35.3h-33l-.19,35.3-18-2.57-13,0-17.57,2.51.26-35.29h-7.73l-15.1,2.5-.28-3q-.15-1.43-.3-2.79c-.11-.92-.21-1.82-.32-2.7s-.21-1.76-.32-2.62-.22-1.7-.33-2.53-.23-1.63-.35-2.43-.25-1.61-.39-2.4-.27-1.59-.41-2.37-.29-1.57-.44-2.35-.29-1.53-.45-2.31-.33-1.55-.51-2.33-.38-1.57-.58-2.36-.41-1.59-.62-2.39l-4-14.79,25,2.45Zm15,10.86c.16-.53.32-1.08.47-1.63l.48-1.69c.16-.57.32-1.15.49-1.74s.33-1.17.5-1.77l-16.64,1.63H966.93L950,291.67l1.87,6.84c.21.83.42,1.65.62,2.48s.4,1.64.59,2.46.37,1.63.55,2.44.34,1.61.5,2.42.3,1.59.44,2.39.27,1.62.4,2.44.25,1.65.38,2.49.25,1.68.37,2.54c.09.61.17,1.23.26,1.87s.17,1.27.25,1.92.17,1.31.24,2,.16,1.35.23,2l9.51-1.54,14,0L980,358.76l11.29-1.59h13.79l11.7,1.64.2-34.41h44.67l-.13,34.37,11.3-1.59h13.8l11.7,1.65.09-34.42h13.37l10,1.59L1122,324q.13-1,.27-2c.09-.65.18-1.3.27-1.93l.27-1.87c.14-.85.27-1.7.4-2.54s.27-1.66.41-2.49.29-1.63.45-2.44.31-1.6.48-2.39.33-1.61.5-2.42.37-1.63.56-2.45.39-1.63.6-2.46.43-1.65.65-2.48m609.51-63.9.74,32.15h-71.34l-.64-32.14Zm-5.25,26.49-.47-20.84H1671l.42,20.83h59.66m125.3,13q-2.07,1.17-4.31,2.22t-4.64,2c-1.6.62-3.25,1.21-5,1.75s-3.46,1-5.27,1.5c-2.3.6-4.72,1.13-7.25,1.57s-5.17.82-7.92,1.12-5.6.52-8.56.67-6,.22-9.17.22h-2.41l-8.8-40,3.5.05h2.21c2.84,0,5.49-.07,8-.21s4.77-.35,6.89-.62,4-.62,5.8-1a33.87,33.87,0,0,0,4.71-1.42,21.22,21.22,0,0,0,2.75-1.3,15.44,15.44,0,0,0,2.28-1.55,12.12,12.12,0,0,0,1.83-1.82,12.28,12.28,0,0,0,1.38-2.1h-14.54l-15,2.5-.39-3c-.13-.91-.26-1.79-.39-2.66s-.27-1.7-.4-2.53-.27-1.62-.41-2.41-.27-1.54-.41-2.27-.28-1.48-.43-2.21-.3-1.46-.45-2.18-.31-1.45-.48-2.16l-.48-2.15c-.17-.71-.35-1.42-.54-2.14s-.39-1.44-.59-2.16-.42-1.44-.64-2.17-.45-1.44-.69-2.17l-4.63-14,25.21,2.42,81.18,0,24.84-2.44-3.86,14c-.2.73-.39,1.45-.58,2.17s-.35,1.45-.51,2.17-.32,1.44-.47,2.16-.29,1.43-.43,2.14-.26,1.43-.39,2.15-.24,1.44-.35,2.16-.22,1.46-.32,2.19l-.3,2.2c-.11.74-.21,1.5-.31,2.28s-.18,1.59-.27,2.41-.17,1.67-.25,2.53-.16,1.75-.23,2.66l-.23,2.95L1899,235.09l-17,0c-.06.68-.13,1.34-.2,2s-.17,1.29-.27,1.93-.21,1.25-.33,1.86-.25,1.21-.39,1.8h17.42l24.78-2.45-1,4c-.25,1-.49,2-.72,2.9s-.47,1.84-.69,2.72-.45,1.73-.67,2.56-.43,1.61-.64,2.38-.39,1.49-.57,2.23-.36,1.46-.52,2.18-.32,1.43-.47,2.14-.3,1.42-.43,2.12-.27,1.41-.39,2.13-.24,1.45-.35,2.19-.22,1.48-.33,2.23-.2,1.52-.29,2.28-.19,1.58-.28,2.4-.19,1.65-.28,2.51-.17,1.73-.26,2.62-.16,1.81-.24,2.74l-.22,3L1899,283l-42.28,0Zm-49.81,5.37q4.16-.06,8.06-.3c2.61-.16,5.12-.38,7.55-.66s4.75-.62,7-1,4.38-.86,6.42-1.38,4.24-1.19,6.23-1.86,3.91-1.41,5.73-2.19,3.56-1.63,5.21-2.52a54,54,0,0,0,4.67-2.83l4.47-3.06.38,13.78h36.93l10.06,1.58c.06-.67.12-1.34.18-2s.14-1.29.2-1.92.15-1.25.22-1.85.15-1.21.22-1.8c.09-.79.2-1.57.3-2.35s.23-1.55.35-2.31.25-1.52.38-2.26.28-1.49.43-2.21.28-1.47.43-2.21.32-1.5.49-2.26.36-1.52.55-2.29.4-1.55.61-2.32c.13-.5.26-1,.4-1.53l.41-1.58c.14-.54.29-1.09.43-1.65s.3-1.13.45-1.72l-16.69,1.63h-25.75l1.31-3.77c.3-.9.57-1.83.81-2.8s.45-2,.63-3,.33-2.13.45-3.25.21-2.27.26-3.45l.19-2.6h22.74l10,1.57.21-1.88c.07-.61.14-1.22.2-1.81s.14-1.18.21-1.75.14-1.14.21-1.68c.1-.77.2-1.53.31-2.28s.22-1.51.34-2.26.25-1.5.39-2.24.27-1.49.42-2.22.28-1.51.43-2.26.32-1.51.49-2.27.36-1.51.55-2.27.4-1.5.61-2.25l1.6-5.94-16.56,1.62-81.72,0-16.9-1.62,1.92,5.94c.26.76.5,1.52.73,2.27s.46,1.52.68,2.27.42,1.5.62,2.25.38,1.5.55,2.25.35,1.48.52,2.22.33,1.49.5,2.24l.48,2.26c.15.76.31,1.52.46,2.28q.15.82.3,1.68c.11.57.2,1.15.3,1.75s.19,1.2.29,1.81.19,1.25.28,1.88l9.53-1.53,22.68-.05-.69,3.41a18.8,18.8,0,0,1-1.53,4.65,16.71,16.71,0,0,1-2.64,3.93,19,19,0,0,1-3.75,3.21,26.2,26.2,0,0,1-4.88,2.47,38.31,38.31,0,0,1-5,1.57c-1.83.45-3.84.82-6,1.13s-4.53.53-7,.69-5.23.26-8.12.28l6.33,28.63m45.24,57.3-.37-13.49h88.33l.41,13.49Zm5.61-7.8.06,2.1h76.7l-.07-2.1h-76.69m-82.06-10.62,24.85-2.46-1,4c-.27,1-.52,2-.76,2.92s-.49,1.88-.72,2.78-.45,1.79-.66,2.65-.43,1.7-.63,2.52-.4,1.61-.59,2.4-.37,1.59-.54,2.37-.34,1.57-.5,2.35-.3,1.55-.44,2.32-.25,1.57-.37,2.36-.25,1.58-.37,2.38-.23,1.6-.34,2.41-.21,1.63-.31,2.45-.19,1.68-.29,2.54-.19,1.74-.28,2.63-.19,1.79-.27,2.71-.18,1.86-.26,2.81l-.24,3L1776,361H1630.5l-15.11,2.52-.37-3c-.13-.95-.25-1.89-.38-2.81s-.25-1.82-.38-2.71-.27-1.76-.4-2.62-.27-1.71-.4-2.55-.27-1.63-.41-2.44-.3-1.62-.46-2.41-.31-1.6-.47-2.39l-.51-2.35c-.16-.77-.33-1.55-.51-2.32s-.38-1.56-.58-2.34-.42-1.58-.64-2.38-.45-1.59-.69-2.4l-4.4-14.86,25.19,2.46h48.35l-.3-14.8h-32.47l-26.5,2.36,4.31-28.16-1.06-54.56-5.24-27.46L1643.8,198l112.61,0,26.4-2.34-4.12,28,1.39,54.53,5.45,27.71-26.89-2.35h-32l.34,14.79Zm15.38,10.92c.14-.54.28-1.09.43-1.64s.29-1.13.43-1.7l.45-1.74c.15-.59.3-1.19.46-1.79L1775.8,324h-54.58l-.58-26.16h38.13l19.58,1.74-4.07-20.91-1.4-55.55,3.09-21.24-19.17,1.74-113.15,0L1624.17,202l3.93,20.77,1.08,55.47-3.27,21.4,19.28-1.73h38.53l.55,26.16h-54.45l-17.06-1.64,2.06,6.87c.24.83.47,1.66.7,2.48s.44,1.65.64,2.48.41,1.63.6,2.45.38,1.62.55,2.43.36,1.6.52,2.41.33,1.62.49,2.44.31,1.66.45,2.5.3,1.69.45,2.55l.3,1.88c.1.64.19,1.28.29,1.94s.19,1.32.29,2,.2,1.36.31,2.05l9.52-1.54,146.37,0,10.07,1.6c.06-.7.13-1.38.2-2.05s.13-1.34.21-2,.14-1.3.22-1.93.15-1.27.23-1.88c.09-.86.2-1.71.31-2.56s.22-1.67.34-2.49.25-1.65.38-2.46.26-1.61.4-2.4.31-1.62.47-2.44.33-1.63.51-2.45.36-1.64.55-2.47.38-1.66.59-2.49M1980.3,315.5l.71,21.9,5.75,28.07-27-2.37-126.1,0-26.58,2.36,4.11-28.31-.62-22.1-5.51-28.91,18.66,2.56h15.09l17.48-2.51.3,10.89h76.6L1930,191.41l18,2.48h13l17.42-2.49,3.09,95.07,2.72-.36Zm-.8,43.64-4.32-21.53-.72-22.57,2.9-22.23-10.71,1.48-15.94,0-11.85-1.63.31,10h-88.25l-.28-10-11.27,1.53-15.93,0-11.2-1.53,4.13,21.8.59,23-3.06,21.52,19.33-1.74,126.61,0,19.66,1.75m-43.56-161.23,2.56,83.14,11.33-1.59h13.84l11.79,1.64L1972.78,198l-11.24,1.52-13.79.06-11.81-1.62m30.12,90.76,11.32-1.64-14-1.89h-13l-12.37,1.74,12.89,1.79h15.11m-428.48,31.7,24.83-2.45-3.9,14.85c-.21.81-.42,1.61-.61,2.41s-.39,1.58-.57,2.37-.35,1.56-.52,2.34-.31,1.55-.46,2.32l-.39,2.36-.39,2.38-.36,2.41c-.12.81-.23,1.62-.33,2.44s-.21,1.69-.32,2.55-.2,1.73-.31,2.62-.2,1.79-.29,2.71-.19,1.86-.28,2.81l-.27,3-15.67-2.58-131.84,0-26.64,2.41L1384,341.1l-.24-15.88-5.13-23.84,18.74,2.61,17.35-.05,0-3.88h-22.37l-15.15,1.22-.28-2.76c-.16-1.38-.33-2.72-.53-4s-.41-2.58-.64-3.82-.5-2.44-.78-3.6-.57-2.27-.9-3.35-.7-2.23-1.1-3.42-.84-2.4-1.31-3.66-1-2.55-1.5-3.88-1.09-2.69-1.69-4.08l-1.71-4.08,25.43,1.22H1485l20.88-1-.19-13.91H1489.2a32.26,32.26,0,0,1-3.9,3.45,36.88,36.88,0,0,1-4.58,2.92,43,43,0,0,1-5.26,2.38,51.77,51.77,0,0,1-5.91,1.85c-2.14.55-4.39,1-6.75,1.43s-4.85.75-7.44,1-5.28.47-8.08.61-5.7.2-8.71.2q-3.37,0-6.62-.11t-6.3-.35c-2.05-.16-4-.35-6-.59s-3.78-.51-5.58-.83-3.59-.69-5.3-1.11-3.34-.89-4.9-1.41-3.07-1.08-4.49-1.7a44.87,44.87,0,0,1-4-2,40.74,40.74,0,0,1-3.72-2.38,34.63,34.63,0,0,1-3.28-2.7,32.12,32.12,0,0,1-2.83-3,29.37,29.37,0,0,1-2.37-3.31,26.46,26.46,0,0,1-1.89-3.67,30.24,30.24,0,0,1-1.37-4.06,33.89,33.89,0,0,1-.85-4.42,41,41,0,0,1-.31-4.78,38.83,38.83,0,0,1,.23-4.76,32.45,32.45,0,0,1,.77-4.41,29.29,29.29,0,0,1,1.3-4.07,27.87,27.87,0,0,1,1.82-3.72,28.35,28.35,0,0,1,2.31-3.34,30.31,30.31,0,0,1,2.78-3,33.9,33.9,0,0,1,3.24-2.68,38.82,38.82,0,0,1,3.7-2.34c1.25-.69,2.59-1.34,4-2s2.88-1.15,4.43-1.66,3.16-1,4.85-1.38,3.43-.78,5.25-1.09,3.63-.6,5.54-.83,3.89-.43,5.93-.59,4.12-.27,6.27-.35,4.35-.12,6.6-.12q4.92,0,9.48.25t8.72.74c2.78.32,5.43.74,7.94,1.23s4.89,1.07,7.13,1.73a49.06,49.06,0,0,1,6.16,2.25,41.35,41.35,0,0,1,5.37,2.86,35,35,0,0,1,4.59,3.48,30.94,30.94,0,0,1,3.78,4.08h14.12l-.23-17.09,18,2.47h12.92l17.46-2.49,2,126.8-18.05-2.56-13,.05-17.55,2.5-.58-42.87c-.27.74-.52,1.46-.76,2.18s-.47,1.41-.69,2.1-.43,1.37-.63,2-.39,1.31-.58,1.95c-.3,1.08-.58,2.19-.83,3.34s-.48,2.35-.69,3.59-.4,2.51-.56,3.82-.32,2.67-.44,4.07l-.22,2.76-15.45-1.23h-21.91l.19,16.21-18-2.51-13.18.05.07,6.55Zm-51.06-75.14h24.89l.92,66.49,11.28-1.58h13.82l11.75,1.63-1.75-113.7-11.23,1.53-13.75.05-11.7-1.62.23,16.24h-23l-.85-1.26a24.78,24.78,0,0,0-3.2-3.76,28.33,28.33,0,0,0-4-3.19,34.54,34.54,0,0,0-4.82-2.63,44.45,44.45,0,0,0-5.61-2q-3.17-.93-6.73-1.63t-7.52-1.17q-4-.47-8.31-.71c-2.89-.15-5.91-.23-9-.23q-3.27,0-6.36.11t-6,.34c-2,.15-3.83.34-5.66.56s-3.59.48-5.29.77-3.26.63-4.8,1-3,.79-4.41,1.25-2.73.95-4,1.49a38,38,0,0,0-3.56,1.74,29.7,29.7,0,0,0-3,1.93,26.2,26.2,0,0,0-2.66,2.21,25.27,25.27,0,0,0-2.28,2.47,24.05,24.05,0,0,0-1.88,2.73,20.62,20.62,0,0,0-1.48,3,25.3,25.3,0,0,0-1,3.36,30.21,30.21,0,0,0-.61,3.69,36.85,36.85,0,0,0-.18,4,39.62,39.62,0,0,0,.25,4,29.46,29.46,0,0,0,.68,3.69,23.78,23.78,0,0,0,1.11,3.34,20.37,20.37,0,0,0,1.53,3,23.09,23.09,0,0,0,1.95,2.7,23.63,23.63,0,0,0,2.34,2.47,28.52,28.52,0,0,0,2.72,2.22,31.91,31.91,0,0,0,3.09,2,40,40,0,0,0,3.59,1.78q1.9.82,4,1.53c1.4.47,2.88.89,4.42,1.27s3.15.72,4.82,1,3.47.55,5.3.77,3.73.41,5.68.55,4,.27,6,.34,4.2.12,6.38.12q4.34,0,8.35-.2c2.68-.12,5.26-.32,7.73-.57s4.82-.57,7.06-1,4.37-.82,6.37-1.33a49.6,49.6,0,0,0,5.44-1.71,36.48,36.48,0,0,0,4.75-2.22,29.67,29.67,0,0,0,4.07-2.71,25.49,25.49,0,0,0,3.36-3.19l.88-1m66.31,86.06,1.83-6.87L1538,326.06l-111.5,0-.18-17.19,5.69-.77h13.75l11.74,1.64-.18-15.33h28l10,.81c.12-1.2.27-2.37.44-3.52s.35-2.27.56-3.36.42-2.15.66-3.19.5-2,.78-3,.49-1.76.77-2.67.58-1.85.9-2.8.66-1.94,1-2.94.73-2,1.12-3.07l-16.39.82h-93.11l-16.55-.81c.41,1,.81,2.07,1.19,3.07s.74,2,1.08,2.93.66,1.89,1,2.8.58,1.81.84,2.67.57,2,.83,3,.51,2.09.74,3.18.44,2.21.63,3.36.37,2.32.52,3.52l9.71-.81h28.48l.15,14.51-5.69.77H1397l-11-1.54,3.5,16.58.25,16.91L1386.43,359l19.16-1.68,132.54,0,10,1.6c.07-.69.14-1.38.21-2.05s.15-1.34.23-2,.16-1.3.24-1.94.16-1.26.25-1.88q.15-1.29.33-2.55c.12-.84.24-1.67.37-2.5s.26-1.64.4-2.44l.42-2.41c.16-.81.32-1.62.5-2.43s.34-1.63.53-2.45.37-1.65.57-2.47.4-1.66.61-2.49m-333.52-42.06-26.45,2.34,4.76-28.08-.11-42.25-4.77-27.52,22.51,2.42h13l17.46-2.49,0,13.23,59.31,0-.07-13.22,17.91,2.47h12.9l22.2-2.44-4.58,28.05.38,42,5,27.85L1332,289.23Zm-16-68.44.13,43.15-3.62,21.36,19.25-1.74h113.2l19.49,1.74L1348,263.93l-.31-42.72,3.43-21.1-14.92,1.62h-13.63l-11.67-1.62.07,12.37-71,0,0-12.32-11.23,1.52-13.73.06-15.23-1.62,3.56,20.64m145.13,75,24.79-2.45-1.06,4q-.42,1.48-.81,2.91c-.26.95-.51,1.87-.76,2.77s-.48,1.78-.7,2.64-.46,1.69-.67,2.51-.43,1.61-.63,2.4-.39,1.58-.57,2.36-.36,1.57-.52,2.34-.31,1.54-.45,2.31-.3,1.57-.44,2.35-.28,1.58-.42,2.38l-.39,2.4c-.12.81-.24,1.62-.35,2.44s-.22,1.68-.33,2.54-.22,1.73-.33,2.62-.21,1.79-.31,2.7-.21,1.85-.3,2.8l-.29,3-15.62-2.56-47.87,0,.15,27.14-18-2.58-13,.05-17.58,2.51-.1-27.13h-48.52l-15.1,2.51-.32-3c-.1-1-.21-1.88-.32-2.79s-.23-1.82-.34-2.71-.24-1.76-.35-2.61-.24-1.71-.36-2.54-.24-1.63-.37-2.44-.27-1.6-.41-2.4-.29-1.59-.44-2.37-.3-1.58-.46-2.35-.3-1.54-.47-2.32-.35-1.55-.54-2.33-.39-1.57-.6-2.36-.42-1.6-.64-2.4l-4.14-14.81,25.11,2.45Zm15.13,10.89c.15-.54.31-1.08.46-1.64s.31-1.12.46-1.69.32-1.15.47-1.74.33-1.18.49-1.78l-16.66,1.63h-145.5l-17-1.64,1.93,6.85c.23.83.44,1.66.65,2.48s.41,1.64.61,2.46.37,1.63.55,2.45.34,1.62.5,2.42.33,1.59.49,2.4.3,1.62.44,2.44.28,1.65.41,2.49.27,1.69.4,2.54c.09.62.18,1.24.27,1.88s.17,1.27.25,1.92.18,1.32.26,2,.18,1.36.27,2l9.51-1.54,54.84,0,.1,26.19,11.3-1.59h13.82l11.73,1.64-.14-26.25h54.19l10,1.59c.07-.69.15-1.37.23-2s.16-1.34.24-2,.17-1.3.25-1.93.18-1.26.26-1.88c.11-.85.23-1.7.35-2.54s.26-1.67.39-2.49.27-1.64.42-2.44.29-1.61.44-2.4.33-1.62.51-2.43.36-1.63.55-2.44.38-1.64.59-2.47.41-1.65.62-2.48"/><path class="cls-3" d="M331.67,253.46a40.18,40.18,0,0,1,.38-4.36,30.6,30.6,0,0,1,.83-4,27,27,0,0,1,1.28-3.61,21.86,21.86,0,0,1,1.74-3.2l3.38-5.22L325,235.36q0-.93.06-1.83c0-.59,0-1.18.05-1.75s0-1.13,0-1.68,0-1.1,0-1.63c0-.76,0-1.51,0-2.27s0-1.49-.07-2.23-.07-1.48-.11-2.2-.11-1.45-.17-2.16-.14-1.42-.22-2.13-.15-1.44-.24-2.16-.17-1.45-.27-2.19-.21-1.47-.33-2.22c-.07-.48-.16-1-.24-1.48s-.17-1-.27-1.59-.18-1.1-.28-1.67-.19-1.17-.29-1.78l17,1.67h24.21l.37-11.72,11.53,1.61,13.65-.05,11.27-1.52L400.31,206H425l16.87-1.67q-.23.91-.42,1.77t-.39,1.68l-.37,1.59c-.12.51-.24,1-.36,1.48-.15.75-.29,1.49-.44,2.23s-.28,1.46-.41,2.18-.27,1.45-.39,2.16-.24,1.43-.35,2.14-.21,1.4-.31,2.12-.17,1.45-.24,2.19-.14,1.49-.19,2.25-.1,1.53-.14,2.3c0,.53-.05,1.07-.08,1.62s-.06,1.12-.08,1.69-.05,1.16-.08,1.75,0,1.21-.06,1.83l-14.33-2.23,3,5.17a23.62,23.62,0,0,1,1.64,3.35,25.57,25.57,0,0,1,1.15,3.66,29.18,29.18,0,0,1,.63,3.94,34.43,34.43,0,0,1,.13,4.22,39.82,39.82,0,0,1-1,7.8,29.51,29.51,0,0,1-2.4,6.77,27.63,27.63,0,0,1-3.86,5.78,30.72,30.72,0,0,1-5.34,4.84,36.62,36.62,0,0,1-7,3.92,54.18,54.18,0,0,1-8.65,2.82,79.62,79.62,0,0,1-10.23,1.7,114.67,114.67,0,0,1-11.78.57,111.89,111.89,0,0,1-11.64-.57,76.57,76.57,0,0,1-10.06-1.7,51.53,51.53,0,0,1-8.44-2.82,34.8,34.8,0,0,1-6.77-3.91,29,29,0,0,1-5-4.84A25.9,25.9,0,0,1,334.1,268a28.57,28.57,0,0,1-2-6.77A39.19,39.19,0,0,1,331.67,253.46Zm39.78-16.23a11.74,11.74,0,0,0-1.72,1.88,12.15,12.15,0,0,0-1.25,2.23,13.13,13.13,0,0,0-.78,2.56,17.24,17.24,0,0,0-.33,2.86,16.94,16.94,0,0,0,.15,2.89,12.38,12.38,0,0,0,.62,2.57,10.55,10.55,0,0,0,1.11,2.23,10.68,10.68,0,0,0,1.6,1.9,12.21,12.21,0,0,0,2,1.49,11.79,11.79,0,0,0,2.24,1.06,15.1,15.1,0,0,0,2.53.64,18.84,18.84,0,0,0,5.61,0,15.2,15.2,0,0,0,2.58-.63,13.5,13.5,0,0,0,4.42-2.52,12.4,12.4,0,0,0,1.79-1.91,11.67,11.67,0,0,0,1.32-2.24,13,13,0,0,0,.83-2.58,15.68,15.68,0,0,0,.34-2.91,15.85,15.85,0,0,0-.16-2.88,12.09,12.09,0,0,0-.68-2.55,10.63,10.63,0,0,0-1.18-2.24,10.42,10.42,0,0,0-1.68-1.91,11.84,11.84,0,0,0-2-1.46,12.68,12.68,0,0,0-2.27-1.05A15.34,15.34,0,0,0,384,234a17.94,17.94,0,0,0-2.79-.21,18.17,18.17,0,0,0-2.8.21,15,15,0,0,0-2.56.63,13.19,13.19,0,0,0-2.32,1.06,13.06,13.06,0,0,0-2.06,1.5m118-11,.74-27.88-11.27,1.52-13.66.06-11.54-1.62-2.56,90.89,11.26-1.58h13.71l11.64,1.63.86-32.13H496l9.87,1.58c.11-.69.21-1.36.32-2s.2-1.32.3-2,.2-1.29.31-1.91.2-1.25.31-1.86c.15-.85.3-1.69.46-2.52s.31-1.66.47-2.47.32-1.62.49-2.42.36-1.6.54-2.38.37-1.6.56-2.41.4-1.61.62-2.42.44-1.63.67-2.44.48-1.64.74-2.47q.23-.79.48-1.62c.16-.55.33-1.11.5-1.68s.34-1.14.52-1.72.35-1.17.54-1.76l-16.57,1.62ZM229.81,202.62a109.06,109.06,0,0,0-11.47,1.72,95.13,95.13,0,0,0-10.72,2.85,84.49,84.49,0,0,0-10,4,73.18,73.18,0,0,0-8.55,4.79,77.82,77.82,0,0,0-8,5.95A84.25,84.25,0,0,0,173.8,229a95.73,95.73,0,0,0-6.71,8.19l6.79,3.39,10.64,8.51,5.3,6.24a53.68,53.68,0,0,1,4.18-4.92,50.54,50.54,0,0,1,4.7-4.33,51.65,51.65,0,0,1,5.19-3.73,53.61,53.61,0,0,1,5.69-3.09,55.79,55.79,0,0,1,7-2.79,65.72,65.72,0,0,1,7.55-2,79.47,79.47,0,0,1,8.11-1.2c2.8-.26,5.67-.4,8.64-.4.88,0,1.75,0,2.63.08s1.75.12,2.61.22,1.73.22,2.58.36,1.7.31,2.53.5,1.7.44,2.52.71,1.61.55,2.38.88,1.52.67,2.24,1,1.42.78,2.09,1.21a22.62,22.62,0,0,1,2,1.41,20.2,20.2,0,0,1,1.76,1.56,18.18,18.18,0,0,1,1.56,1.73,21.5,21.5,0,0,1,1.35,1.89,17,17,0,0,1,1.12,2.16,16.21,16.21,0,0,1,.77,2.29,15.9,15.9,0,0,1,.44,2.42,19.68,19.68,0,0,1,.08,2.56,26.36,26.36,0,0,1-.41,3.88,21.12,21.12,0,0,1-.93,3.5,18.75,18.75,0,0,1-1.46,3.1,17.61,17.61,0,0,1-2,2.72c-.69.77-1.43,1.53-2.22,2.26s-1.63,1.45-2.52,2.15-1.84,1.37-2.83,2-2,1.29-3.14,1.9l-84.5,47.33c-.21,1.63-.44,3.26-.7,4.89s-.54,3.26-.84,4.88-.64,3.23-1,4.84-.73,3.2-1.13,4.78c-.35,1.33-.72,2.66-1.11,4s-.81,2.68-1.24,4-.89,2.7-1.36,4.05-1,2.71-1.5,4.06l7.64-1.22,124.2,0,9.88,1.58q.17-1,.33-2c.11-.67.22-1.33.32-2s.22-1.3.32-1.93.22-1.26.33-1.87c.16-.86.32-1.7.48-2.54s.32-1.67.49-2.49.34-1.63.52-2.44.36-1.6.56-2.39.38-1.61.58-2.43.42-1.62.64-2.44.45-1.63.69-2.46.5-1.65.76-2.48c.16-.53.33-1.08.49-1.63s.34-1.12.52-1.69.35-1.15.53-1.74.37-1.17.56-1.77l-16.62,1.63H223.38L274,298.38q4.17-2.25,7.77-4.59t6.63-4.78a60.6,60.6,0,0,0,5.47-4.95,45,45,0,0,0,4.3-5.11,39.16,39.16,0,0,0,3.23-5.42,41.16,41.16,0,0,0,2.39-6,47.18,47.18,0,0,0,1.55-6.63,54.94,54.94,0,0,0,.69-7.19,52.23,52.23,0,0,0-.13-6,47.11,47.11,0,0,0-.82-5.7,42,42,0,0,0-1.5-5.34,38.75,38.75,0,0,0-2.18-5,45.78,45.78,0,0,0-6-8.88,46.8,46.8,0,0,0-3.73-3.86,50.32,50.32,0,0,0-4.19-3.46c-1.49-1.08-3-2.11-4.65-3.07s-3.29-1.87-5-2.7-3.52-1.6-5.37-2.3-3.75-1.32-5.7-1.88-4-1.07-6-1.49-4.06-.79-6.13-1.08-4.14-.5-6.24-.64S244.11,202,242,202Q235.73,202,229.81,202.62Zm101.94,97.19,1.7,6.83c.19.83.38,1.65.56,2.47s.36,1.64.52,2.46.33,1.63.49,2.44l.45,2.41c.13.79.25,1.59.38,2.39s.24,1.62.35,2.44.22,1.65.32,2.48.2,1.68.29,2.54l.21,1.86c.07.64.14,1.28.2,1.93s.13,1.31.2,2,.12,1.35.17,2l9.51-1.53,102.79,0-.73,26.13,11.29-1.59h13.74l11.68,1.64,1.57-58.83-11.32,1.53-127.55,0Zm192.81-99.47,1.75,6.78c.2.82.39,1.64.58,2.46l.54,2.43c.17.81.34,1.62.5,2.42s.31,1.61.46,2.4.27,1.58.4,2.38.25,1.6.37,2.41.23,1.64.34,2.47.21,1.67.3,2.52c.08.61.16,1.22.23,1.85s.15,1.26.22,1.91.14,1.3.21,2,.13,1.34.19,2l9.47-1.52,48.37-.06-2.82,123.84L597,355h13.76l11.69,1.64,3.33-156.31-11.27,1.52-73.12.07Zm144.65-.44-11.57-1.62-3.21,160.4,11.29-1.58h13.76l11.71,1.64,3-160.42-11.28,1.52Zm152.34,66-.23,17.71H858l9.93,1.58c.08-.69.17-1.37.26-2s.19-1.32.28-2,.2-1.29.29-1.92.2-1.25.3-1.86c.14-.86.28-1.7.42-2.53s.29-1.66.44-2.48.3-1.63.46-2.43.33-1.6.51-2.39.34-1.6.52-2.41.38-1.62.58-2.43.41-1.63.63-2.45.44-1.65.67-2.47c.16-.54.32-1.08.49-1.63s.32-1.12.49-1.68.33-1.15.5-1.73.34-1.18.52-1.77l-16.6,1.62H830.52l1.71-3.91c.44-1,.86-2,1.24-3.06s.74-2.08,1.06-3.14.62-2.13.89-3.22.51-2.18.72-3.28.41-2.25.59-3.39.31-2.31.43-3.48.21-2.36.28-3.56.11-2.4.12-3.62l.28-21.62-11.27,1.52-13.7,0-11.59-1.61L801,221.94a39.91,39.91,0,0,1-.77,7.42,31.39,31.39,0,0,1-2.07,6.58,27.71,27.71,0,0,1-3.36,5.72,29.09,29.09,0,0,1-4.65,4.84,28.14,28.14,0,0,1-5.42,3.58,38.19,38.19,0,0,1-6.69,2.61,56.23,56.23,0,0,1-8,1.65,82.6,82.6,0,0,1-9.33.69l5.13,30.58q4.14-.08,8-.38c2.58-.21,5.07-.48,7.48-.84s4.72-.78,6.94-1.28,4.36-1.08,6.4-1.73,4.23-1.47,6.24-2.31,3.93-1.74,5.77-2.71,3.61-2,5.28-3.1a55.17,55.17,0,0,0,4.77-3.49Zm146.54-46.75c.14.8.28,1.6.41,2.42s.26,1.64.39,2.47.24,1.67.35,2.52c.08.61.17,1.23.26,1.85s.17,1.27.25,1.92.16,1.3.24,2,.16,1.34.23,2l9.47-1.52,96.57-.07-.15,44.3,11.26-1.58h13.75L1112.8,277l.14-76.81-11.23,1.52-121.33.08-16.86-1.61,1.87,6.78c.21.83.42,1.65.62,2.46s.4,1.63.59,2.44.37,1.62.54,2.43.35,1.6.51,2.4S968,218.31,968.09,219.11Zm-34.73,90.58,1-111.44-11.28,1.52-13.7.06-11.61-1.62-1.16,111.42,11.27-1.58h13.76ZM810.79,326l.39-28.13-11.32,1.58H782l-11.06-1.53,3.22,20.67-.24,18.86L770,358.86l19.48-1.73,129.67,0,10,1.59c.09-.69.19-1.38.28-2.05l.27-2c.1-.65.19-1.3.28-1.93s.18-1.26.28-1.87q.21-1.29.42-2.55c.14-.84.28-1.67.43-2.49s.3-1.64.46-2.45.33-1.6.5-2.4.34-1.61.52-2.42.38-1.63.58-2.45.41-1.64.62-2.47.44-1.65.67-2.48c.16-.54.32-1.08.48-1.64s.33-1.12.49-1.69.33-1.15.5-1.74.34-1.18.52-1.78L919.71,326ZM966,293.31l-16.92-1.64,1.87,6.84c.21.83.42,1.65.62,2.48s.4,1.64.59,2.46.37,1.63.55,2.44.34,1.61.5,2.42.3,1.59.43,2.39.28,1.62.41,2.44.25,1.65.38,2.49.25,1.68.37,2.54c.09.61.17,1.23.26,1.87s.17,1.27.25,1.92.16,1.31.24,2,.16,1.35.23,2l9.51-1.54,14,0L979,358.76l11.3-1.59h13.79l11.7,1.64.2-34.41h44.67l-.13,34.37,11.29-1.59h13.81l11.7,1.65.09-34.42h13.37l10,1.59L1121,324l.27-2c.08-.65.18-1.3.27-1.93l.27-1.87c.14-.85.27-1.7.4-2.54s.27-1.66.41-2.49.29-1.63.45-2.44.31-1.6.48-2.39.33-1.61.5-2.42.36-1.63.56-2.45.39-1.63.6-2.46.43-1.65.65-2.48c.16-.53.32-1.08.47-1.63l.48-1.69c.16-.57.32-1.15.49-1.74s.33-1.17.5-1.77l-16.64,1.63Zm895-29.67.38,13.78h36.93l10.06,1.58c.05-.67.12-1.34.18-2s.13-1.29.2-1.92.15-1.25.22-1.85.15-1.21.22-1.8c.09-.79.2-1.57.3-2.35s.23-1.55.35-2.31.25-1.52.38-2.26.28-1.49.43-2.21.28-1.47.43-2.21.32-1.5.49-2.26.36-1.52.55-2.29.4-1.55.61-2.32c.13-.5.26-1,.4-1.53l.41-1.58c.14-.54.29-1.09.43-1.65s.3-1.13.45-1.72l-16.7,1.63H1872l1.31-3.77c.3-.9.57-1.83.81-2.8s.45-2,.63-3,.33-2.13.45-3.25.2-2.27.26-3.45l.19-2.6h22.74l10,1.57.21-1.88c.07-.61.13-1.22.2-1.81s.14-1.18.21-1.75.14-1.14.21-1.68c.1-.77.2-1.53.31-2.28s.22-1.51.34-2.26.25-1.5.39-2.24.27-1.49.42-2.22.28-1.51.43-2.26.32-1.51.49-2.27.36-1.51.55-2.27.4-1.5.61-2.25l1.6-5.94-16.56,1.62-81.72,0-16.9-1.62,1.92,5.94c.26.76.5,1.52.73,2.27s.46,1.52.68,2.27.42,1.5.61,2.25.39,1.5.56,2.25.35,1.48.52,2.22.33,1.49.5,2.24l.48,2.26c.15.76.31,1.52.46,2.28l.3,1.68c.1.57.2,1.15.3,1.75s.19,1.2.29,1.81.19,1.25.28,1.88l9.53-1.53,22.68-.05-.69,3.41a18.8,18.8,0,0,1-1.53,4.65,16.71,16.71,0,0,1-2.64,3.93,19.28,19.28,0,0,1-3.75,3.21,26.2,26.2,0,0,1-4.88,2.47,38.79,38.79,0,0,1-5,1.57c-1.84.45-3.84.82-6,1.13s-4.52.53-7,.69-5.23.26-8.12.28l6.33,28.63q4.15-.06,8.06-.3c2.61-.16,5.12-.38,7.55-.66s4.75-.62,7-1,4.38-.86,6.42-1.38,4.24-1.19,6.23-1.86,3.91-1.41,5.73-2.19,3.56-1.63,5.21-2.52a54,54,0,0,0,4.67-2.83ZM1974.5,281.1,1971.82,198l-11.24,1.52-13.79.06L1935,197.91l2.56,83.14,11.33-1.59h13.83ZM1774.84,324l16.75-1.64c-.16.6-.31,1.2-.46,1.79l-.45,1.74c-.14.57-.29,1.14-.43,1.7s-.29,1.1-.43,1.64c-.21.83-.4,1.66-.59,2.49s-.37,1.65-.55,2.47-.35,1.64-.51,2.45-.32,1.63-.47,2.44-.27,1.6-.4,2.4-.26,1.63-.38,2.46-.23,1.65-.34,2.49-.22,1.7-.31,2.56c-.08.61-.16,1.24-.23,1.88s-.15,1.28-.22,1.93-.15,1.32-.22,2-.13,1.35-.19,2.05l-10.07-1.6-146.37,0-9.52,1.54c-.11-.69-.21-1.38-.31-2.05s-.19-1.34-.29-2-.19-1.3-.29-1.94l-.3-1.88q-.23-1.29-.45-2.55l-.45-2.5c-.16-.82-.32-1.64-.49-2.44s-.34-1.61-.52-2.41-.36-1.62-.55-2.43-.39-1.63-.6-2.45-.42-1.65-.64-2.48-.46-1.65-.7-2.48l-2.06-6.87,17.06,1.64h54.44l-.54-26.16h-38.53L1625,299.6l3.27-21.4-1.08-55.47L1623.21,202l19.48,1.72,113.15,0,19.17-1.74-3.09,21.24,1.4,55.55,4.07,20.91-19.58-1.74h-38.13l.58,26.16Zm-110-57.28h71.34l-.74-32.15h-71.24l.64,32.14M1973.49,315l.73,22.57,4.32,21.53-19.67-1.75-126.6,0-19.34,1.74,3.07-21.52-.59-23-4.13-21.8,11.2,1.53,15.93,0,11.27-1.53.28,10h88.25l-.31-10,11.85,1.63,15.94,0,10.71-1.48Zm-34.23,21.74-.41-13.49h-88.33l.37,13.49h88.37M1425.52,326l-.18-17.19,5.69-.77h13.75l11.74,1.64-.18-15.33h28l10,.81c.12-1.2.27-2.37.44-3.52s.35-2.27.56-3.36.42-2.15.66-3.19.5-2,.78-3,.49-1.76.77-2.67.58-1.85.9-2.8.66-1.94,1-2.94.73-2,1.12-3.07l-16.39.82h-93.11l-16.55-.81c.41,1,.81,2.07,1.19,3.07s.74,2,1.08,2.93.66,1.89,1,2.8.58,1.81.84,2.67.57,2,.83,3,.51,2.09.74,3.18.44,2.21.63,3.36.37,2.32.52,3.52l9.71-.81h28.48l.15,14.51-5.69.77h-17.94l-11-1.54,3.5,16.58.25,16.91L1385.47,359l19.16-1.68,132.54,0,10,1.6c.07-.69.14-1.38.21-2.05s.15-1.34.23-2,.16-1.3.24-1.94.16-1.26.25-1.88q.15-1.29.33-2.55c.12-.84.24-1.67.37-2.5s.26-1.64.4-2.44.28-1.61.42-2.41.32-1.62.49-2.43.35-1.63.54-2.45.37-1.65.57-2.47.4-1.66.61-2.49l1.83-6.87L1537,326.06Zm-207.44-42.48-19.25,1.74,3.62-21.36-.13-43.15-3.57-20.64,15.24,1.62,13.73-.06,11.23-1.52,0,12.32,71,0-.07-12.37,11.67,1.62h13.63l14.92-1.62-3.43,21.1.31,42.72,3.77,21.37-19.49-1.74Zm21-43.79,0,16.43h71.11l-.09-16.44h-71.07m158.23,11.94a31.91,31.91,0,0,1-3.09-2,28.52,28.52,0,0,1-2.72-2.22,23.63,23.63,0,0,1-2.34-2.47,23.09,23.09,0,0,1-2-2.7,19.43,19.43,0,0,1-1.53-3,23.78,23.78,0,0,1-1.11-3.34,29.46,29.46,0,0,1-.68-3.69,37.54,37.54,0,0,1-.07-8,30.21,30.21,0,0,1,.61-3.69,25.3,25.3,0,0,1,1-3.36,21.64,21.64,0,0,1,1.47-3,23.9,23.9,0,0,1,4.17-5.2,26.2,26.2,0,0,1,2.66-2.21,29.7,29.7,0,0,1,3-1.93,38,38,0,0,1,3.56-1.74c1.26-.54,2.59-1,4-1.49s2.87-.88,4.41-1.25,3.14-.71,4.8-1,3.47-.55,5.29-.77,3.71-.41,5.66-.56,3.94-.26,6-.34,4.18-.11,6.36-.11c3.13,0,6.15.08,9,.23s5.67.4,8.31.71,5.15.7,7.52,1.17,4.62,1,6.73,1.63a44.45,44.45,0,0,1,5.61,2,34.54,34.54,0,0,1,4.82,2.63,28.33,28.33,0,0,1,4,3.19,24.78,24.78,0,0,1,3.2,3.76l.85,1.26h23l-.23-16.24,11.69,1.62,13.76-.05,11.23-1.53,1.75,113.7-11.75-1.63h-13.82l-11.28,1.58-.92-66.49h-24.9l-.87,1a25.49,25.49,0,0,1-3.36,3.19,29.67,29.67,0,0,1-4.07,2.71,36.48,36.48,0,0,1-4.75,2.22,49.6,49.6,0,0,1-5.44,1.71q-3,.77-6.37,1.33c-2.24.39-4.6.71-7.06,1s-5.05.45-7.73.57-5.47.2-8.35.2q-3.27,0-6.38-.12c-2.07-.07-4.08-.19-6-.34s-3.85-.33-5.68-.55-3.6-.48-5.3-.77-3.28-.63-4.82-1-3-.8-4.42-1.27-2.75-1-4-1.53A38.71,38.71,0,0,1,1397.3,251.71ZM1424.16,221a10.08,10.08,0,0,0-3.12,1.52,7,7,0,0,0-1.8,2,7.09,7.09,0,0,0-.82,2.05,8.16,8.16,0,0,0,0,3.59,7.06,7.06,0,0,0,2.7,4.06,10.51,10.51,0,0,0,3.15,1.55c.75.21,1.57.4,2.47.57s1.9.3,3,.41,2.24.2,3.49.25,2.61.09,4.06.09,2.72,0,4-.09,2.37-.14,3.43-.26,2-.25,2.93-.43a22.56,22.56,0,0,0,2.45-.6,9.86,9.86,0,0,0,3.12-1.52,6.81,6.81,0,0,0,1.79-2,6.92,6.92,0,0,0,.82-2.07,7.63,7.63,0,0,0,.18-1.81,8.2,8.2,0,0,0-.22-1.78,7.29,7.29,0,0,0-.87-2.05,7,7,0,0,0-1.84-2,10.05,10.05,0,0,0-3.15-1.52,22.19,22.19,0,0,0-2.46-.6c-.9-.17-1.88-.32-2.94-.43s-2.2-.2-3.43-.26-2.55-.08-4-.08-2.8,0-4,.08-2.42.15-3.49.26-2.06.26-3,.43a21.66,21.66,0,0,0-2.46.6M1202.3,301.48l-17-1.64,1.93,6.85c.23.83.44,1.66.65,2.48s.41,1.64.61,2.46.37,1.63.55,2.45.34,1.62.5,2.42.33,1.59.49,2.4.3,1.62.44,2.44.28,1.65.41,2.49.27,1.69.4,2.54c.09.62.18,1.24.27,1.88s.17,1.27.25,1.92.18,1.32.26,2,.18,1.36.27,2l9.51-1.54,54.84,0,.1,26.19,11.3-1.59h13.82l11.73,1.64-.14-26.25h54.19l10,1.59c.07-.69.15-1.37.23-2s.16-1.34.24-2,.17-1.3.25-1.93.17-1.26.26-1.88c.11-.85.23-1.7.35-2.54s.26-1.67.39-2.49.27-1.64.42-2.44.29-1.61.44-2.4.33-1.62.51-2.43.36-1.63.55-2.44.38-1.64.58-2.47l.63-2.48c.15-.54.31-1.08.46-1.64s.31-1.12.46-1.69.31-1.15.47-1.74.33-1.18.49-1.78l-16.66,1.63Z"/><path class="cls-4" d="M1385.79,232.35a28,28,0,0,0,.68,3.69,23.33,23.33,0,0,0,1.1,3.34,20.77,20.77,0,0,0,1.53,3,26.89,26.89,0,0,0,2,2.71,27.23,27.23,0,0,0,2.35,2.47,28.52,28.52,0,0,0,2.72,2.22,35.13,35.13,0,0,0,3.08,2,37.68,37.68,0,0,0,3.6,1.78c1.27.56,2.61,1.07,4,1.54s2.89.89,4.43,1.27,3.15.72,4.82,1,3.46.55,5.3.77,3.72.41,5.68.56,4,.26,6,.34,4.2.11,6.38.11c2.88,0,5.67-.06,8.35-.19s5.26-.32,7.72-.58,4.83-.57,7.07-.95,4.36-.83,6.37-1.34a45.46,45.46,0,0,0,5.43-1.71,36.6,36.6,0,0,0,4.76-2.21,29.59,29.59,0,0,0,3.89-2.6c.12-.12.27-.23.38-.36l.88-1h.19a24.61,24.61,0,0,0,2.09-2l.87-1h24.89l.93,66.49,11.28-1.58h13.81l8.55,1.19-1.7-110.3L1534,202.55l-13.75,0-8.49-1.17.17,12.84h-3.19l0,2.95h-23l-.85-1.27a24.78,24.78,0,0,0-3.2-3.76,27.24,27.24,0,0,0-4-3.19,33,33,0,0,0-4.82-2.62,44.45,44.45,0,0,0-5.61-2c-2.1-.62-4.35-1.16-6.72-1.63s-4.89-.86-7.53-1.17-5.41-.55-8.3-.7-5.91-.24-9-.24c-2.18,0-4.29,0-6.35.12s-4.07.19-6,.33-3.83.34-5.66.56-3.59.48-5.29.77-3.26.63-4.8,1-3,.79-4.4,1.25-2.74,1-4,1.49a38,38,0,0,0-3.56,1.74,29.7,29.7,0,0,0-3,1.93c-.28.21-.52.45-.8.66-.32.36-.68.7-1,1.07a25.51,25.51,0,0,0-1.89,2.73,21.23,21.23,0,0,0-1.47,3,24.41,24.41,0,0,0-1.05,3.36,28,28,0,0,0-.61,3.68,37.62,37.62,0,0,0,.07,8Zm31.39-2.87a6.78,6.78,0,0,1,.81-2,7,7,0,0,1,1.8-2,8.2,8.2,0,0,1,1.28-.78c0-.07,0-.14.08-.21a6.78,6.78,0,0,1,1.79-2,9.86,9.86,0,0,1,3.12-1.52,22.19,22.19,0,0,1,2.46-.6c.91-.18,1.89-.32,3-.43s2.24-.2,3.49-.26,2.61-.09,4-.09,2.73,0,4,.09,2.37.14,3.43.25,2,.26,2.93.43a23,23,0,0,1,2.47.6,10.05,10.05,0,0,1,3.15,1.52,7.19,7.19,0,0,1,1.84,2,6.86,6.86,0,0,1,.86,2.05,7.61,7.61,0,0,1,.23,1.77,8.72,8.72,0,0,1-.18,1.81,6.82,6.82,0,0,1-.82,2.07,7,7,0,0,1-1.79,2,8.84,8.84,0,0,1-1.29.79c0,.06,0,.13-.07.19a7,7,0,0,1-1.8,2,10.08,10.08,0,0,1-3.12,1.53c-.74.22-1.55.42-2.45.6s-1.87.31-2.93.43-2.2.2-3.43.25-2.54.09-4,.09-2.8,0-4-.08-2.42-.14-3.5-.26-2.07-.24-3-.41a22.86,22.86,0,0,1-2.48-.57,10.4,10.4,0,0,1-3.15-1.55,7.24,7.24,0,0,1-1.84-2,7,7,0,0,1-.86-2.07,8.46,8.46,0,0,1-.22-1.81A8,8,0,0,1,1417.18,229.48Zm-70.62,75,16.65-1.64c-.16.6-.32,1.2-.48,1.78s-.32,1.17-.48,1.74-.3,1.14-.46,1.69-.3,1.1-.46,1.64c-.21.83-.42,1.66-.62,2.48s-.4,1.65-.59,2.47-.37,1.63-.55,2.44-.35,1.62-.51,2.43-.3,1.59-.44,2.4l-.42,2.44c-.13.82-.26,1.65-.38,2.49s-.24,1.69-.36,2.55c-.08.61-.17,1.24-.25,1.87s-.18,1.28-.26,1.93c0,.21,0,.43-.08.65l-7.24-1.15h-54.19v2.95h-3.17l.12,22.85-8.56-1.2H1270l-11.29,1.59-.1-26.2-54.84.05-9.51,1.53q-.13-1-.27-2c-.09-.68-.17-1.34-.26-2s-.17-1.3-.26-1.93-.17-1.26-.27-1.87c-.13-.86-.26-1.71-.39-2.54s-.27-1.67-.42-2.49-.28-1.64-.44-2.45-.31-1.6-.48-2.39-.33-1.62-.5-2.43-.36-1.63-.56-2.44-.39-1.64-.6-2.47-.43-1.65-.65-2.48l-1-3.5,12.86,1.24Zm461-25-5.7-25.8c1.45,0,3-.07,4.34-.16q3.78-.24,7-.69a60,60,0,0,0,6-1.13,38.63,38.63,0,0,0,5-1.57,25.61,25.61,0,0,0,4.88-2.47,19.34,19.34,0,0,0,3.76-3.21c.16-.18.25-.41.4-.6a19.11,19.11,0,0,0,2.75-2.35,16.71,16.71,0,0,0,2.64-3.93,18.79,18.79,0,0,0,1.52-4.65l.69-3.41-22.68.06-9.52,1.53c-.1-.64-.19-1.27-.29-1.88s-.19-1.23-.28-1.82-.2-1.18-.3-1.75-.2-1.13-.31-1.68c-.15-.76-.3-1.52-.46-2.28s-.31-1.5-.48-2.25-.33-1.5-.49-2.24-.35-1.49-.52-2.23-.36-1.49-.56-2.24-.4-1.51-.61-2.26-.44-1.5-.68-2.26-.48-1.52-.73-2.28l-.84-2.58,12.66,1.21,81.72,0,16.56-1.63-1.6,5.94c-.21.75-.41,1.5-.6,2.26s-.38,1.51-.55,2.26-.34,1.52-.49,2.27-.3,1.51-.44,2.26-.29,1.48-.42,2.22-.26,1.49-.39,2.24-.23,1.5-.34,2.26-.21,1.52-.3,2.28c-.08.55-.15,1.11-.22,1.68s-.14,1.15-.21,1.75l0,.31-7.26-1.14h-22.74l-.19,2.6,0,.35h-2.94l-.18,2.6q-.09,1.77-.27,3.45c-.12,1.12-.27,2.2-.45,3.25s-.39,2.06-.63,3-.51,1.91-.81,2.8l-1.31,3.77h25.75l16.69-1.64c-.15.59-.3,1.16-.44,1.72s-.29,1.12-.44,1.65-.27,1.07-.41,1.59-.27,1-.4,1.52c-.21.78-.41,1.55-.6,2.32s-.38,1.54-.55,2.29-.34,1.52-.5,2.26-.3,1.48-.43,2.21-.29,1.46-.43,2.21-.26,1.5-.38,2.26-.24,1.53-.34,2.31-.21,1.57-.31,2.36c-.07.58-.15,1.18-.22,1.79s-.14,1.22-.21,1.85l-.06.52-7.23-1.13h-36.93l-.38-13.79-4.47,3.06c-1.47,1-3,1.94-4.67,2.84s-3.39,1.73-5.21,2.51-3.74,1.52-5.73,2.19-4.07,1.3-6.23,1.86-4.19,1-6.42,1.39-4.57.74-7,1-4.94.5-7.54.66S1810.33,279.43,1807.55,279.47Zm163-78.57,2.57,79.75-8.53-1.18h-13.83l-11.33,1.58L1937,201.31l8.55,1.17,13.79,0ZM1834.18,357.36l126.6,0,15.86,1.42L1973,340.56l-.72-22.57,2.9-22.23-10.7,1.49-15.94.05-8.59-1.19.2,6.63h-3.25l.1,2.95h-88.26l-.27-10-11.28,1.53-15.93.05-7.39-1,3.47,18.34.6,23-3.07,21.52Zm18.24-34.08h88.33l.42,13.5h-3.25l.09,2.94h-88.37l-.37-13.49h3.23ZM1788,334.71c.19-.83.39-1.66.59-2.49.14-.54.29-1.09.43-1.64s.29-1.12.44-1.7.29-1.15.44-1.74.3-1.19.46-1.79L1773.6,327H1719l-.58-26.16h3.22l-.06-2.95h38.13l15.79,1.41-3.43-17.62-1.41-55.55,3.09-21.24-19.17,1.73-113.15,0-15.7-1.39,3.3,17.49,1.09,55.47-3.27,21.41,19.28-1.74h38.53l.54,26.16H1682l.06,3h-54.45l-12.9-1.24,1.06,3.52q.36,1.25.69,2.49c.23.83.44,1.65.65,2.47s.41,1.64.6,2.45.37,1.63.54,2.43.36,1.6.53,2.41.33,1.62.49,2.45.3,1.66.45,2.5.3,1.69.44,2.55c.11.61.21,1.24.3,1.88s.2,1.28.3,1.93.19,1.32.29,2l.3,2.05,9.52-1.53,146.38,0,7.25,1.15c0-.22,0-.44.07-.66.07-.65.15-1.3.22-1.93s.15-1.26.23-1.88c.1-.86.2-1.71.31-2.55s.22-1.68.34-2.5.25-1.64.38-2.45.27-1.61.4-2.41.31-1.62.47-2.43l.51-2.46C1787.61,336.36,1787.79,335.54,1788,334.71Zm-124.42-65-.64-32.15h3.22l-.06-2.95h71.24l.74,32.15h-3.23l.07,2.95ZM1549.44,339.2c-.18.82-.36,1.64-.53,2.45s-.34,1.63-.5,2.43l-.42,2.41c-.14.81-.27,1.62-.4,2.45s-.25,1.65-.37,2.49-.23,1.7-.33,2.56c-.08.61-.17,1.24-.25,1.87s-.16,1.28-.24,1.94c0,.21-.05.43-.07.65l-7.25-1.15-132.55,0L1387.38,359l3.35-17.34-.26-16.91-2.76-13.08,7.11,1h17.93l5.69-.77,0-2.52,3.18-.42-.15-14.52H1393l-9.71.82c-.16-1.2-.33-2.38-.52-3.53s-.4-2.26-.63-3.35-.48-2.16-.74-3.19-.54-2-.84-3-.53-1.76-.83-2.67-.62-1.85-1-2.8-.68-1.88-1-2.84l12.18.6H1483l16.4-.82c-.39,1-.77,2.07-1.13,3.07s-.69,2-1,2.94-.62,1.89-.9,2.8-.54,1.81-.78,2.67-.53,2-.77,3-.47,2.09-.67,3.18-.39,2.22-.56,3.36c0,.12,0,.24,0,.35l-7.24-.59h-28l0,2.95h-3.19l.14,11.94-8.54-1.19h-13.75l-5.7.76,0,2.52-3.18.43.18,17.2h111.5l16.68-1.64-1.83,6.87c-.21.83-.41,1.66-.61,2.49S1549.62,338.38,1549.44,339.2ZM1212.75,204.72l-11.51-1.22,3,17.29.13,43.16-3.62,21.35,19.25-1.73h113.19l15.76,1.4-3.18-18.08-.32-42.73,3.44-21.1L1334,204.69h-13.63l-8.49-1.18.05,9h-3.17l0,2.94-71,0,0-12.32-11.23,1.53ZM1241,239.78H1312l.1,16.43H1309l0,2.95h-71.11l-.05-16.43H1241Zm-118.13,69.07c-.18.81-.35,1.62-.51,2.42s-.33,1.59-.48,2.4-.3,1.62-.44,2.44l-.42,2.48q-.2,1.26-.39,2.55c-.1.61-.19,1.23-.28,1.86l-.27,1.93-.09.65-7.24-1.16h-13.36v2.95h-3.15l-.08,31-8.56-1.2h-13.8l-11.3,1.59.14-34.36h-44.68v2.95h-3.14l-.18,31-8.56-1.2H992.25L981,358.76l.25-34.35-14,0-9.5,1.53c-.07-.69-.15-1.37-.23-2s-.16-1.33-.24-2-.17-1.3-.25-1.93-.18-1.26-.26-1.87c-.13-.86-.25-1.7-.37-2.54l-.39-2.49c-.13-.82-.26-1.63-.4-2.43s-.28-1.61-.43-2.4-.33-1.61-.51-2.42-.36-1.62-.54-2.44-.39-1.64-.59-2.46-.41-1.65-.62-2.48l-1-3.49,12.85,1.24H1110l16.64-1.63c-.17.6-.33,1.19-.5,1.78s-.33,1.16-.49,1.73-.32,1.14-.47,1.69-.32,1.1-.48,1.64c-.22.83-.44,1.65-.64,2.48s-.42,1.64-.61,2.46S1123,308,1122.85,308.85Zm-615-64.74c-.19.79-.37,1.58-.54,2.38s-.34,1.61-.5,2.42-.32,1.64-.47,2.47-.31,1.67-.46,2.52c-.1.61-.21,1.23-.31,1.86s-.2,1.26-.3,1.91c0,.21-.07.42-.1.63l-7.24-1.15h-7.42l-.08,3h-3.07l-.77,28.75-8.57-1.2H464.28L453,289.23l2.46-87.51,8.49,1.19,13.66,0,11.27-1.52-.75,27.87h7.72l16.57-1.62-.54,1.76-.52,1.73c-.17.56-.34,1.12-.5,1.67l-.48,1.63c-.25.82-.5,1.64-.73,2.46s-.46,1.63-.68,2.44-.42,1.62-.61,2.42S508,243.31,507.82,244.11ZM325.38,209.43c.08.51.16,1,.24,1.49.11.74.22,1.48.32,2.22s.19,1.46.28,2.18.17,1.45.24,2.16.15,1.43.21,2.14.13,1.42.17,2.15.09,1.46.12,2.2.05,1.49.07,2.24,0,1.51,0,2.27c0,.53,0,1.07,0,1.62s0,1.11,0,1.69,0,1.15-.06,1.75,0,1.2-.06,1.82l14.31-2.28-3.38,5.22a22.37,22.37,0,0,0-1.73,3.21,26.51,26.51,0,0,0-1.29,3.61,32.34,32.34,0,0,0-.83,4,42.41,42.41,0,0,0,.09,12.15,28.91,28.91,0,0,0,2,6.77,25,25,0,0,0,3.48,5.78,27.92,27.92,0,0,0,5,4.84,34.53,34.53,0,0,0,6.77,3.92,50.3,50.3,0,0,0,8.44,2.81,76.57,76.57,0,0,0,10.06,1.7,111.75,111.75,0,0,0,11.64.57,114.67,114.67,0,0,0,11.78-.57,79.62,79.62,0,0,0,10.23-1.7,52.24,52.24,0,0,0,8.65-2.82,37.14,37.14,0,0,0,7-3.91c.56-.41,1.06-.85,1.58-1.28.19-.21.42-.4.6-.62a27.41,27.41,0,0,0,3.87-5.78,30.48,30.48,0,0,0,2.4-6.77,39.63,39.63,0,0,0,1-7.8,36.37,36.37,0,0,0-.13-4.21,29.32,29.32,0,0,0-.64-3.95,26.73,26.73,0,0,0-1.14-3.65,24.87,24.87,0,0,0-1.64-3.36l-3-5.16,5.35.83-2.2-3.78,11.31,1.75a.81.81,0,0,0,0-.16c0-.57.05-1.13.08-1.68s.06-1.1.09-1.63c0-.77.08-1.54.13-2.29s.12-1.51.19-2.25.16-1.48.25-2.2.19-1.42.3-2.12.23-1.42.35-2.14l.39-2.15q.19-1.09.42-2.19c.14-.74.29-1.48.44-2.22.11-.48.23-1,.35-1.49l.37-1.59c.12-.54.25-1.1.39-1.67s.27-1.17.42-1.78L423.74,209H399.07l.35-11.67-11.27,1.52-13.65,0L366,197.71l-.27,8.35h-3.06L362.6,209H338.4l-13.31-1.3s0,.09,0,.14C325.2,208.39,325.29,208.92,325.38,209.43Zm41.07,37.42a13.77,13.77,0,0,1,.79-2.55,11.26,11.26,0,0,1,3-4.12,12.7,12.7,0,0,1,1.41-1l0,0a11.39,11.39,0,0,1,1.72-1.89,13,13,0,0,1,4.37-2.55,14.21,14.21,0,0,1,2.57-.64,18.71,18.71,0,0,1,5.59,0,14.63,14.63,0,0,1,2.53.63,13.38,13.38,0,0,1,2.27,1,12.32,12.32,0,0,1,2,1.47,11.22,11.22,0,0,1,1.68,1.91,10.56,10.56,0,0,1,1.18,2.23,12.17,12.17,0,0,1,.67,2.56,15.72,15.72,0,0,1,.17,2.88,16.8,16.8,0,0,1-.34,2.91,13.8,13.8,0,0,1-.83,2.57,11.67,11.67,0,0,1-1.32,2.24,12.06,12.06,0,0,1-1.8,1.92,13.9,13.9,0,0,1-1.27.9l-.08.13a12.51,12.51,0,0,1-1.8,1.92,13.73,13.73,0,0,1-2.09,1.46,13.26,13.26,0,0,1-2.33,1.05,15.32,15.32,0,0,1-2.57.63,18.3,18.3,0,0,1-2.81.21,18.11,18.11,0,0,1-2.81-.21,13.58,13.58,0,0,1-2.53-.64,11.79,11.79,0,0,1-2.24-1.06,11.19,11.19,0,0,1-1.95-1.49,10.33,10.33,0,0,1-1.61-1.89,10.87,10.87,0,0,1-1.11-2.24,12.88,12.88,0,0,1-.62-2.57,16,16,0,0,1-.14-2.89A17.26,17.26,0,0,1,366.45,246.85ZM587.58,356.62l2.82-123.84-48.37.06-9.48,1.52c-.06-.68-.12-1.35-.19-2s-.13-1.32-.2-2-.15-1.28-.22-1.91-.15-1.24-.23-1.85c-.09-.85-.2-1.69-.3-2.52s-.22-1.65-.34-2.46-.25-1.62-.37-2.42-.26-1.59-.4-2.37-.3-1.6-.46-2.4-.33-1.61-.51-2.42-.35-1.62-.54-2.44-.38-1.63-.58-2.46l-.88-3.44,12.77,1.23,73.12-.07,11.27-1.52-3.25,152.93L612.63,355H598.87ZM308.68,329l-.54,1.73c-.17.57-.34,1.14-.51,1.69s-.34,1.1-.5,1.64c-.26.83-.51,1.65-.75,2.48s-.48,1.64-.7,2.46-.43,1.63-.64,2.44-.39,1.62-.58,2.42-.38,1.59-.56,2.4-.35,1.61-.52,2.43-.33,1.65-.49,2.49l-.48,2.54c-.11.62-.22,1.24-.32,1.87s-.22,1.28-.32,1.93c0,.22-.08.44-.11.66L294.38,357l-124.2,0-7.63,1.23c.52-1.36,1-2.71,1.5-4.06s.93-2.71,1.36-4,.84-2.7,1.24-4,.76-2.67,1.11-4c.4-1.58.78-3.18,1.13-4.78s.69-3.22,1-4.84.59-3.24.85-4.87c.19-1.21.35-2.41.51-3.61l81.53-45.67c1.1-.61,2.15-1.24,3.14-1.9s1.94-1.32,2.83-2,1.74-1.41,2.53-2.15c.55-.51,1.05-1,1.56-1.59s1.09-.89,1.59-1.35c.79-.74,1.53-1.5,2.22-2.27a17.53,17.53,0,0,0,2-2.71,18,18,0,0,0,1.45-3.11,22.15,22.15,0,0,0,.94-3.5,27.79,27.79,0,0,0,.41-3.88,17.91,17.91,0,0,0-.09-2.55,16.25,16.25,0,0,0-.43-2.43,15.45,15.45,0,0,0-.78-2.29,15.75,15.75,0,0,0-1.11-2.16,21.5,21.5,0,0,0-1.35-1.89,21.22,21.22,0,0,0-1.56-1.72,22.11,22.11,0,0,0-1.76-1.57c-.63-.49-1.29-1-2-1.4s-1.37-.84-2.09-1.22-1.47-.73-2.24-1-1.57-.62-2.39-.88-1.65-.5-2.51-.7-1.68-.36-2.53-.5-1.71-.27-2.58-.37-1.74-.17-2.61-.22-1.76-.07-2.64-.07q-4.44,0-8.63.4a76.41,76.41,0,0,0-8.11,1.19,68.59,68.59,0,0,0-7.56,2,60.43,60.43,0,0,0-7,2.79,53.53,53.53,0,0,0-5.68,3.1,50.44,50.44,0,0,0-5.19,3.72,52,52,0,0,0-4.7,4.33l-.15.18c-1,.91-2.06,1.78-3,2.77-.48.5-.9,1.07-1.36,1.59l-5-5.85-10.64-8.51-6.8-3.4a97.75,97.75,0,0,1,6.72-8.19c1.47-1.59,3.06-3,4.61-4.44a76.24,76.24,0,0,1,7.55-5.63,71.83,71.83,0,0,1,8.55-4.8,88.85,88.85,0,0,1,10-4,99.76,99.76,0,0,1,10.73-2.85,111.54,111.54,0,0,1,11.46-1.72q5.91-.57,12.18-.58c2.13,0,4.24.08,6.34.22s4.18.36,6.25.65,4.1.64,6.13,1.07,4,.93,6,1.49,3.86,1.19,5.71,1.88,3.63,1.47,5.36,2.3,3.41,1.74,5,2.7,3.16,2,4.65,3.08a47.09,47.09,0,0,1,4.2,3.46,46.41,46.41,0,0,1,7,8.1,47.51,47.51,0,0,1,2.76,4.63,38.75,38.75,0,0,1,2.18,5,42,42,0,0,1,1.5,5.34,45.21,45.21,0,0,1,.82,5.7,52.4,52.4,0,0,1,.13,6,56.76,56.76,0,0,1-.68,7.18,50.15,50.15,0,0,1-1.55,6.63,42.33,42.33,0,0,1-2.4,6.05,39.81,39.81,0,0,1-3.22,5.43,44.21,44.21,0,0,1-4,4.7c-.89.8-1.68,1.61-2.66,2.4a80.24,80.24,0,0,1-6.62,4.78q-3.6,2.34-7.77,4.6L225.29,325.9h2.27l-5.42,3h70.47l16.62-1.63C309.05,327.83,308.86,328.42,308.68,329Zm166.19-24.66,11.32-1.53-1.48,55.45-8.61-1.21H462.36l-11.29,1.58.73-26.12-102.79,0-9.51,1.53q-.09-1-.18-2c-.06-.67-.12-1.33-.19-2s-.14-1.29-.2-1.92-.14-1.26-.22-1.87c-.08-.85-.18-1.7-.28-2.53s-.21-1.67-.32-2.49l-.36-2.43c-.12-.81-.25-1.6-.38-2.39s-.29-1.61-.44-2.42-.32-1.62-.49-2.44-.34-1.63-.52-2.45-.37-1.65-.56-2.48l-.87-3.49,12.83,1.24Zm456.39,37.2c-.19.81-.36,1.62-.52,2.43s-.35,1.59-.51,2.4-.31,1.62-.46,2.44-.29,1.65-.43,2.49-.28,1.69-.42,2.55c-.09.61-.19,1.24-.28,1.87l-.27,1.93-.09.66L921,357.16l-129.66,0-19.49,1.74,3.93-21.45.24-18.86-2.68-17.21,7.36,1h17.91l11.32-1.58-.39,28.13,108.92,0,16.65-1.64c-.17.6-.34,1.2-.51,1.78s-.34,1.17-.5,1.74-.33,1.14-.49,1.69l-.49,1.64c-.23.83-.45,1.66-.67,2.49s-.42,1.64-.62,2.46S931.44,340.74,931.26,341.55ZM1100.47,204.7l11.22-1.52-.14,73.43-8.52-1.19h-13.76L1078,277l.15-44.31-96.56.07-9.47,1.53c-.08-.69-.15-1.36-.23-2s-.16-1.32-.24-2-.17-1.28-.26-1.91-.17-1.25-.26-1.86c-.11-.85-.22-1.69-.35-2.52s-.25-1.65-.38-2.47-.27-1.62-.41-2.42-.29-1.59-.44-2.37-.33-1.6-.51-2.41-.36-1.61-.55-2.42-.38-1.63-.58-2.44-.41-1.64-.63-2.46l-.94-3.45,12.78,1.23ZM909.8,308.05l-11.28,1.59,1.13-108,8.49,1.18,13.7-.05,11.28-1.52-1,108-8.59-1.2ZM783.45,253a28.22,28.22,0,0,0,5.43-3.58,31.81,31.81,0,0,0,2.28-2.37c.27-.21.61-.36.87-.58a29.44,29.44,0,0,0,4.65-4.83A28.91,28.91,0,0,0,800,236a31.48,31.48,0,0,0,2.07-6.59,40.69,40.69,0,0,0,.77-7.42l.26-18.29,8.49,1.18,13.69-.05,11.27-1.52-.27,21.62c0,1.22-.06,2.43-.13,3.62s-.16,2.39-.28,3.56-.26,2.33-.43,3.48-.37,2.28-.59,3.39-.45,2.2-.72,3.29-.56,2.15-.88,3.21-.68,2.11-1.07,3.14-.79,2.05-1.24,3.06l-1.71,3.91h28.12l16.6-1.63c-.17.6-.35,1.19-.52,1.77s-.33,1.16-.5,1.73-.33,1.13-.49,1.68-.33,1.1-.49,1.63c-.23.83-.45,1.65-.67,2.47s-.43,1.64-.63,2.45-.39,1.62-.57,2.43-.36,1.61-.53,2.41-.35,1.59-.51,2.39-.31,1.61-.46,2.43-.3,1.64-.44,2.48-.28,1.68-.42,2.53c-.1.61-.2,1.23-.29,1.86s-.2,1.27-.29,1.92l-.09.63-7.23-1.15H823.22l.24-17.71-4.84,3.92a55.48,55.48,0,0,1-4.76,3.48c-1.67,1.1-3.44,2.13-5.28,3.1s-3.77,1.88-5.77,2.72-4.09,1.6-6.25,2.31-4.17,1.22-6.39,1.72-4.54.93-6.94,1.29-4.9.63-7.49.83-5.25.33-8,.38l-4.67-27.8c2-.12,3.91-.28,5.72-.52a55,55,0,0,0,8-1.65A37.88,37.88,0,0,0,783.45,253ZM681.65,202.8l11.27-1.52-2.92,157-8.61-1.2H667.63l-11.29,1.59,3.14-157,8.49,1.18Z"/><g id="_40" data-name="40"><path id="_17" data-name="17" class="cls-1" d="M1774.87,10.73c-1.75-.81-3.48-1.66-5.25-2.42-4.4-1.88-8.86-3.6-13.69-4a15.94,15.94,0,0,0-3.45.1c-3.14.43-4.78,2.56-4.53,5.73a17.56,17.56,0,0,0,2.11,6.55,61.58,61.58,0,0,0,8.78,12.52A178.06,178.06,0,0,0,1797.6,62a112.24,112.24,0,0,0,21.15,10.9,33.39,33.39,0,0,0,10.74,2.46,13.14,13.14,0,0,0,2.66-.21,4.87,4.87,0,0,0,4.25-5.6,17.92,17.92,0,0,0-2.25-6.9,66.21,66.21,0,0,0-8.89-12.56,1.7,1.7,0,0,1-.48-.94c1.39,1.52,2.8,3,4.15,4.58,4.41,5.09,8.57,10.36,11.58,16.44a19.61,19.61,0,0,1,2.25,7.43,5.62,5.62,0,0,1-4.77,6.37c-3.25.7-6.43.15-9.59-.62a83.47,83.47,0,0,1-18.59-7.43,205,205,0,0,1-34.74-23.18,183.16,183.16,0,0,1-25.22-24.35,67.1,67.1,0,0,1-10.15-15.27,16.73,16.73,0,0,1-1.78-6.84,5.53,5.53,0,0,1,4.73-5.91c3.32-.72,6.57-.16,9.78.65a88.55,88.55,0,0,1,19.11,7.75c1.14.59,2.27,1.22,3.41,1.83Z"/><path class="cls-1" d="M1776.08,5.54c2.41,1.41,4.81,2.86,7.25,4.23a19.63,19.63,0,0,0,3.09,1.31,7.9,7.9,0,0,0,8.1-1.35c2.66-2.25,5.08-4.78,7.6-7.2.32-.31.6-.66,1-1.15-1.55,2.56-3.05,4.91-4.4,7.35a23.94,23.94,0,0,0-1.79,4.16,8.17,8.17,0,0,0,1.1,7.27,41.91,41.91,0,0,0,6.76,7.32,12.15,12.15,0,0,1,1.44,1.51c-1.65-1-3.27-2.12-5-3.08a45.66,45.66,0,0,0-4.94-2.49,8.2,8.2,0,0,0-8.94,1.18c-2.66,2.24-5.06,4.79-7.57,7.22a5.8,5.8,0,0,1-.89.81c.57-.88,1.17-1.74,1.69-2.65,1.32-2.32,2.72-4.6,3.87-7a8.58,8.58,0,0,0-1.27-9.89c-2.08-2.41-4.42-4.6-6.64-6.89-.2-.21-.41-.4-.61-.6Z"/></g><path id="_8" data-name="8" class="cls-1" d="M504.25,457s16.78,0,22.38-5.59S532.22,429,532.22,429s0,16.78,5.6,22.38S560.2,457,560.2,457s-16.79,0-22.38,5.6-5.6,22.38-5.6,22.38,0-16.79-5.59-22.38S504.25,457,504.25,457Z"/><path id="_8-2" data-name="8" class="cls-1" d="M1581.83,552.33s16.78,0,22.38-5.59,5.59-22.38,5.59-22.38,0,16.78,5.6,22.38,22.38,5.59,22.38,5.59-16.79,0-22.38,5.6-5.6,22.38-5.6,22.38,0-16.79-5.59-22.38S1581.83,552.33,1581.83,552.33Z"/><path id="_9" data-name="9" class="cls-1" d="M492.57,484.93c.48,2.53,1.32,5.14,2.77,6.59s4.07,2.29,6.6,2.77c-2.53.48-5.14,1.31-6.6,2.77s-2.29,4.07-2.77,6.6c-.47-2.53-1.31-5.14-2.76-6.6s-4.07-2.29-6.6-2.77c2.53-.48,5.14-1.31,6.6-2.77s2.29-4.06,2.76-6.59m0-6.74s0,9.66-3.22,12.88-12.88,3.22-12.88,3.22,9.66,0,12.88,3.22,3.22,12.89,3.22,12.89,0-9.67,3.23-12.89,12.88-3.22,12.88-3.22-9.66,0-12.88-3.22-3.23-12.88-3.23-12.88Z"/><path class="cls-1" d="M561.52,479.1a29.29,29.29,0,0,1,14.12-3.26,26.21,26.21,0,0,1,8,1.22,21.28,21.28,0,0,1,6.87,3.61,17.57,17.57,0,0,1,4.78,5.93,17.87,17.87,0,0,1,1.77,8.1,17.35,17.35,0,0,1-2.32,9.25,22.27,22.27,0,0,1-7.61,7l-12.45,7.64h18.38l6.45-.7-.93,3.71c-.28,1.13-.52,2.22-.71,3.3s-.37,2.18-.52,3.33-.29,2.37-.42,3.68l-3.87-.7H554.68l-3.87.7a51,51,0,0,0,1.9-7,60.78,60.78,0,0,0,.94-7l26.12-16.55a11.4,11.4,0,0,0,3-2.67,6.29,6.29,0,0,0,1.13-3.92,5.3,5.3,0,0,0-.71-2.74,6.48,6.48,0,0,0-1.87-2,8.47,8.47,0,0,0-2.64-1.19,12.35,12.35,0,0,0-3-.38,19.48,19.48,0,0,0-9.29,2.1,15.39,15.39,0,0,0-6.25,6.31l-2.39-3-3.42-2.95-2.9-1.54A26,26,0,0,1,561.52,479.1Z"/><path class="cls-1" d="M649.7,504.23a38,38,0,0,1-1.64,11.4,26.8,26.8,0,0,1-4.75,9,21.31,21.31,0,0,1-7.61,5.89,26,26,0,0,1-20.48,0,21.38,21.38,0,0,1-7.58-5.89,27,27,0,0,1-4.74-9,40.17,40.17,0,0,1,0-22.79,26.87,26.87,0,0,1,4.74-9,21.27,21.27,0,0,1,7.58-5.89,26,26,0,0,1,20.48,0,21.2,21.2,0,0,1,7.61,5.89,26.71,26.71,0,0,1,4.75,9A38,38,0,0,1,649.7,504.23Zm-13.16,0a25.73,25.73,0,0,0-.9-7.29,14.63,14.63,0,0,0-2.42-4.91,8.89,8.89,0,0,0-3.52-2.73,11.2,11.2,0,0,0-8.51,0A8.67,8.67,0,0,0,617.7,492a14.79,14.79,0,0,0-2.38,4.91,29.82,29.82,0,0,0,0,14.62,14.66,14.66,0,0,0,2.38,4.87,8.61,8.61,0,0,0,3.49,2.74,11.2,11.2,0,0,0,8.51,0,8.83,8.83,0,0,0,3.52-2.74,14.5,14.5,0,0,0,2.42-4.87A25.64,25.64,0,0,0,636.54,504.23Z"/><path class="cls-1" d="M661.51,479.1a29.29,29.29,0,0,1,14.12-3.26,26.26,26.26,0,0,1,8,1.22,21.28,21.28,0,0,1,6.87,3.61,17.57,17.57,0,0,1,4.78,5.93,17.87,17.87,0,0,1,1.77,8.1,17.35,17.35,0,0,1-2.32,9.25,22.27,22.27,0,0,1-7.61,7l-12.45,7.64h18.38l6.45-.7-.93,3.71c-.28,1.13-.52,2.22-.71,3.3s-.37,2.18-.52,3.33-.29,2.37-.42,3.68l-3.87-.7H654.67l-3.87.7a51,51,0,0,0,1.9-7,60.78,60.78,0,0,0,.94-7l26.12-16.55a11.4,11.4,0,0,0,3-2.67,6.29,6.29,0,0,0,1.13-3.92,5.3,5.3,0,0,0-.71-2.74,6.48,6.48,0,0,0-1.87-2,8.47,8.47,0,0,0-2.64-1.19,12.35,12.35,0,0,0-3-.38,19.48,19.48,0,0,0-9.29,2.1,15.33,15.33,0,0,0-6.25,6.31l-2.39-3-3.42-2.95-2.9-1.54A26,26,0,0,1,661.51,479.1Z"/><path class="cls-1" d="M704.79,476.54l7.1.7h28.77l6.45-.7c-.34,1.35-.66,2.59-.94,3.71s-.51,2.22-.71,3.3-.36,2.18-.51,3.33-.29,2.37-.42,3.68l-3.87-.7H719.24v8.48a24.8,24.8,0,0,1,5.52-1.82,31.38,31.38,0,0,1,6.09-.56,24.45,24.45,0,0,1,7,1,16.77,16.77,0,0,1,6,3.19,15.79,15.79,0,0,1,4.19,5.61,19.54,19.54,0,0,1,1.58,8.2,17.24,17.24,0,0,1-2,8.59,17,17,0,0,1-5.32,5.79,23.13,23.13,0,0,1-7.65,3.26,39.17,39.17,0,0,1-8.9,1,43.79,43.79,0,0,1-13.22-2,38.55,38.55,0,0,1-5.78-2.35,22.62,22.62,0,0,1-4.67-3.12l2.64-2,3.1-5.12,1-3.72a15.84,15.84,0,0,0,3.45,2.42,25.91,25.91,0,0,0,4.32,1.82,32.1,32.1,0,0,0,4.74,1.13,31.7,31.7,0,0,0,4.78.38,22.06,22.06,0,0,0,4-.35,11.89,11.89,0,0,0,3.29-1.09,6.2,6.2,0,0,0,2.22-1.85,4.56,4.56,0,0,0,.81-2.74,4.26,4.26,0,0,0-2.71-4.17,17.52,17.52,0,0,0-7.16-1.23,16.3,16.3,0,0,0-4.1.46,14.31,14.31,0,0,0-3.32,1.29H706.08V485Z"/><path class="cls-1" d="M753.49,525a7.62,7.62,0,0,1,2-5.54,7.46,7.46,0,0,1,10.38,0,8.57,8.57,0,0,1,0,11.08,7.46,7.46,0,0,1-10.38,0A7.62,7.62,0,0,1,753.49,525Z"/><path class="cls-1" d="M841.16,504.23a38,38,0,0,1-1.64,11.4,27,27,0,0,1-4.74,9,21.44,21.44,0,0,1-7.62,5.89,26,26,0,0,1-20.48,0,21.47,21.47,0,0,1-7.58-5.89,27,27,0,0,1-4.74-9,40.17,40.17,0,0,1,0-22.79,26.87,26.87,0,0,1,4.74-9,21.36,21.36,0,0,1,7.58-5.89,26,26,0,0,1,20.48,0,21.32,21.32,0,0,1,7.62,5.89,26.87,26.87,0,0,1,4.74,9A38,38,0,0,1,841.16,504.23Zm-13.16,0a25.73,25.73,0,0,0-.9-7.29,14.44,14.44,0,0,0-2.42-4.91,8.89,8.89,0,0,0-3.52-2.73,11.2,11.2,0,0,0-8.51,0,8.64,8.64,0,0,0-3.48,2.73,14.61,14.61,0,0,0-2.39,4.91,30.14,30.14,0,0,0,0,14.62,14.48,14.48,0,0,0,2.39,4.87,8.58,8.58,0,0,0,3.48,2.74,11.2,11.2,0,0,0,8.51,0,8.83,8.83,0,0,0,3.52-2.74,14.32,14.32,0,0,0,2.42-4.87A25.64,25.64,0,0,0,828,504.23Z"/><path class="cls-1" d="M870.45,475.84a43.39,43.39,0,0,1,8.42.8,22.89,22.89,0,0,1,7.25,2.67,14.6,14.6,0,0,1,5.07,4.9,14.13,14.13,0,0,1,1.9,7.61,12.1,12.1,0,0,1-1.8,6.63,14,14,0,0,1-5,4.66,16.39,16.39,0,0,1,6.23,5.05,12.51,12.51,0,0,1,2.22,7.5,14.4,14.4,0,0,1-2.06,7.89,15.79,15.79,0,0,1-5.48,5.26,25.84,25.84,0,0,1-7.78,2.91,43.29,43.29,0,0,1-8.93.91,42.79,42.79,0,0,1-8.9-.91,25.86,25.86,0,0,1-7.75-2.91,15.79,15.79,0,0,1-5.48-5.26,14.4,14.4,0,0,1-2.06-7.89,12.64,12.64,0,0,1,2.19-7.5,16.1,16.1,0,0,1,6.19-5.05,13.72,13.72,0,0,1-5-4.66,12.26,12.26,0,0,1-1.77-6.63,14.13,14.13,0,0,1,1.9-7.61,14.6,14.6,0,0,1,5.07-4.9,22.89,22.89,0,0,1,7.22-2.67A42.86,42.86,0,0,1,870.45,475.84Zm0,33.65q-5.94,0-8.49,1.44a4.14,4.14,0,0,0,0,7.64q2.55,1.44,8.49,1.44t8.51-1.44a4.12,4.12,0,0,0,0-7.64Q876.38,509.49,870.45,509.49Zm0-12.62q5,0,7.26-1.05a3.35,3.35,0,0,0,0-6.31q-2.24-1-7.26-1.05t-7.19,1.05a3.35,3.35,0,0,0,0,6.31Q865.48,496.87,870.45,496.87Z"/><path class="cls-1" d="M899.15,525a7.62,7.62,0,0,1,2-5.54,7.46,7.46,0,0,1,10.38,0,8.57,8.57,0,0,1,0,11.08,7.46,7.46,0,0,1-10.38,0A7.62,7.62,0,0,1,899.15,525Z"/><path class="cls-1" d="M951.54,518.61v-27l-6.84,7.79-1-2.25-4.39-4.42L936.7,492l14.84-15.42,4.51.7h3.48l4.52-.7v42.07h1.61l6.45-.7-.93,3.71c-.28,1.13-.52,2.22-.71,3.3s-.37,2.18-.52,3.33-.29,2.37-.42,3.68l-3.87-.7H943.41l-3.87.7c-.13-1.31-.27-2.53-.42-3.68s-.33-2.26-.52-3.33-.43-2.17-.71-3.3l-.93-3.71,6.45.7Z"/><path class="cls-1" d="M975.47,476.54l7.09.7h28.78l6.45-.7c-.35,1.35-.66,2.59-.94,3.71s-.52,2.22-.71,3.3-.36,2.18-.51,3.33-.29,2.37-.42,3.68l-3.87-.7H989.92v8.48a24.55,24.55,0,0,1,5.51-1.82,31.49,31.49,0,0,1,6.1-.56,24.45,24.45,0,0,1,7,1,16.64,16.64,0,0,1,6,3.19,15.81,15.81,0,0,1,4.2,5.61,19.54,19.54,0,0,1,1.58,8.2,17.24,17.24,0,0,1-2,8.59,17,17,0,0,1-5.33,5.79,23,23,0,0,1-7.64,3.26,39.17,39.17,0,0,1-8.9,1,43.63,43.63,0,0,1-6.77-.52,44.4,44.4,0,0,1-6.46-1.51,38.42,38.42,0,0,1-5.77-2.35,23,23,0,0,1-4.68-3.12l2.65-2,3.09-5.12,1-3.72a15.6,15.6,0,0,0,3.45,2.42,25.22,25.22,0,0,0,4.32,1.82,32.1,32.1,0,0,0,4.74,1.13,31.7,31.7,0,0,0,4.78.38,22.14,22.14,0,0,0,4-.35,11.89,11.89,0,0,0,3.29-1.09,6.29,6.29,0,0,0,2.22-1.85,4.56,4.56,0,0,0,.81-2.74,4.27,4.27,0,0,0-2.71-4.17,17.55,17.55,0,0,0-7.16-1.23,16.25,16.25,0,0,0-4.1.46,14.31,14.31,0,0,0-3.32,1.29H976.76V485Z"/><path class="cls-1" d="M1056.69,510.9a4.16,4.16,0,0,0-2.91,1.4,11.39,11.39,0,0,0-2.45,4.35l-2.19-2.25-4.78-2.73-2.64-.56a23,23,0,0,1,2.61-6,17.17,17.17,0,0,1,3.39-4,12.61,12.61,0,0,1,3.74-2.21,11.15,11.15,0,0,1,3.74-.7,10.47,10.47,0,0,1,4.32.81,19.7,19.7,0,0,1,3.23,1.79c.9.65,1.74,1.23,2.51,1.72a4.42,4.42,0,0,0,2.39.73,4.12,4.12,0,0,0,2.9-1.4,11.26,11.26,0,0,0,2.46-4.35l2.19,2.25,4.77,2.73,2.65.56a24.82,24.82,0,0,1-2.65,6,16.56,16.56,0,0,1-3.35,4,12.31,12.31,0,0,1-3.74,2.21,10.91,10.91,0,0,1-3.74.7,10.56,10.56,0,0,1-4.33-.8,20.35,20.35,0,0,1-3.22-1.79c-.95-.65-1.8-1.23-2.55-1.72A4.24,4.24,0,0,0,1056.69,510.9Z"/><path class="cls-1" d="M1114.49,479.1a29.29,29.29,0,0,1,14.12-3.26,26.21,26.21,0,0,1,8,1.22,21.28,21.28,0,0,1,6.87,3.61,17.57,17.57,0,0,1,4.78,5.93,17.87,17.87,0,0,1,1.77,8.1,17.35,17.35,0,0,1-2.32,9.25,22.27,22.27,0,0,1-7.61,7l-12.45,7.64H1146l6.45-.7-.93,3.71c-.28,1.13-.52,2.22-.71,3.3s-.37,2.18-.52,3.33-.29,2.37-.42,3.68l-3.87-.7h-38.38l-3.87.7a51,51,0,0,0,1.9-7,60.78,60.78,0,0,0,.94-7l26.12-16.55a11.4,11.4,0,0,0,3-2.67,6.29,6.29,0,0,0,1.13-3.92,5.3,5.3,0,0,0-.71-2.74,6.48,6.48,0,0,0-1.87-2,8.47,8.47,0,0,0-2.64-1.19,12.35,12.35,0,0,0-3-.38,19.48,19.48,0,0,0-9.29,2.1,15.33,15.33,0,0,0-6.25,6.31l-2.39-3-3.42-2.95-2.9-1.54A26,26,0,0,1,1114.49,479.1Z"/><path class="cls-1" d="M1202.67,504.23a37.66,37.66,0,0,1-1.65,11.4,26.61,26.61,0,0,1-4.74,9,21.31,21.31,0,0,1-7.61,5.89,26,26,0,0,1-20.48,0,21.38,21.38,0,0,1-7.58-5.89,26.61,26.61,0,0,1-4.74-9,40.17,40.17,0,0,1,0-22.79,26.51,26.51,0,0,1,4.74-9,21.27,21.27,0,0,1,7.58-5.89,26,26,0,0,1,20.48,0,21.2,21.2,0,0,1,7.61,5.89,26.51,26.51,0,0,1,4.74,9A37.64,37.64,0,0,1,1202.67,504.23Zm-13.16,0a25.73,25.73,0,0,0-.9-7.29,14.63,14.63,0,0,0-2.42-4.91,9,9,0,0,0-3.52-2.73,11.2,11.2,0,0,0-8.51,0,8.67,8.67,0,0,0-3.49,2.73,14.79,14.79,0,0,0-2.38,4.91,29.82,29.82,0,0,0,0,14.62,14.66,14.66,0,0,0,2.38,4.87,8.61,8.61,0,0,0,3.49,2.74,11.2,11.2,0,0,0,8.51,0,8.9,8.9,0,0,0,3.52-2.74,14.5,14.5,0,0,0,2.42-4.87A25.64,25.64,0,0,0,1189.51,504.23Z"/><path class="cls-1" d="M1214.47,479.1a29.36,29.36,0,0,1,14.13-3.26,26.26,26.26,0,0,1,8,1.22,21.28,21.28,0,0,1,6.87,3.61,17.57,17.57,0,0,1,4.78,5.93,17.87,17.87,0,0,1,1.77,8.1,17.35,17.35,0,0,1-2.32,9.25,22.22,22.22,0,0,1-7.62,7l-12.45,7.64H1246l6.45-.7c-.34,1.35-.66,2.59-.93,3.71s-.52,2.22-.71,3.3-.37,2.18-.52,3.33-.29,2.37-.42,3.68l-3.87-.7h-38.38l-3.87.7a51,51,0,0,0,1.9-7,58.67,58.67,0,0,0,.93-7l26.13-16.55a11.4,11.4,0,0,0,3-2.67,6.29,6.29,0,0,0,1.13-3.92,5.3,5.3,0,0,0-.71-2.74,6.48,6.48,0,0,0-1.87-2,8.52,8.52,0,0,0-2.65-1.19,12.33,12.33,0,0,0-3-.38,19.48,19.48,0,0,0-9.29,2.1,15.33,15.33,0,0,0-6.25,6.31l-2.39-3-3.42-2.95-2.9-1.54A26,26,0,0,1,1214.47,479.1Z"/><path class="cls-1" d="M1257.76,476.54l7.1.7h28.77l6.45-.7c-.35,1.35-.66,2.59-.94,3.71s-.51,2.22-.71,3.3-.36,2.18-.51,3.33-.29,2.37-.42,3.68l-3.87-.7h-21.42v8.48a24.8,24.8,0,0,1,5.52-1.82,31.38,31.38,0,0,1,6.09-.56,24.45,24.45,0,0,1,7,1,16.77,16.77,0,0,1,6,3.19,15.79,15.79,0,0,1,4.19,5.61,19.54,19.54,0,0,1,1.58,8.2,17.24,17.24,0,0,1-2,8.59,17,17,0,0,1-5.32,5.79,23.13,23.13,0,0,1-7.65,3.26,39.17,39.17,0,0,1-8.9,1,43.79,43.79,0,0,1-13.22-2,38.55,38.55,0,0,1-5.78-2.35,22.62,22.62,0,0,1-4.67-3.12l2.64-2,3.1-5.12,1-3.72a15.84,15.84,0,0,0,3.45,2.42,25.91,25.91,0,0,0,4.32,1.82,32.1,32.1,0,0,0,4.74,1.13,31.7,31.7,0,0,0,4.78.38,22.06,22.06,0,0,0,4-.35,11.89,11.89,0,0,0,3.29-1.09,6.29,6.29,0,0,0,2.22-1.85,4.56,4.56,0,0,0,.81-2.74,4.26,4.26,0,0,0-2.71-4.17,17.52,17.52,0,0,0-7.16-1.23,16.25,16.25,0,0,0-4.1.46,14.31,14.31,0,0,0-3.32,1.29h-13.16V485Z"/><path class="cls-1" d="M1306.46,525a7.62,7.62,0,0,1,2-5.54,7.46,7.46,0,0,1,10.38,0,8.54,8.54,0,0,1,0,11.08,7.46,7.46,0,0,1-10.38,0A7.62,7.62,0,0,1,1306.46,525Z"/><path class="cls-1" d="M1394.13,504.23a38,38,0,0,1-1.64,11.4,27,27,0,0,1-4.74,9,21.44,21.44,0,0,1-7.62,5.89,26,26,0,0,1-20.48,0,21.47,21.47,0,0,1-7.58-5.89,27,27,0,0,1-4.74-9,40.41,40.41,0,0,1,0-22.79,26.87,26.87,0,0,1,4.74-9,21.36,21.36,0,0,1,7.58-5.89,26,26,0,0,1,20.48,0,21.32,21.32,0,0,1,7.62,5.89,26.87,26.87,0,0,1,4.74,9A38,38,0,0,1,1394.13,504.23Zm-13.16,0a25.73,25.73,0,0,0-.9-7.29,14.44,14.44,0,0,0-2.42-4.91,8.89,8.89,0,0,0-3.52-2.73,11.2,11.2,0,0,0-8.51,0,8.71,8.71,0,0,0-3.48,2.73,14.8,14.8,0,0,0-2.39,4.91,30.14,30.14,0,0,0,0,14.62,14.67,14.67,0,0,0,2.39,4.87,8.65,8.65,0,0,0,3.48,2.74,11.2,11.2,0,0,0,8.51,0,8.83,8.83,0,0,0,3.52-2.74,14.32,14.32,0,0,0,2.42-4.87A25.64,25.64,0,0,0,1381,504.23Z"/><path class="cls-1" d="M1422.77,475.84a29.27,29.27,0,0,1,10.74,1.82,20.25,20.25,0,0,1,7.87,5.36,23.84,23.84,0,0,1,4.88,8.66,37.59,37.59,0,0,1,1.67,11.64,39,39,0,0,1-2,13.11,24.19,24.19,0,0,1-5.51,9.12,22.29,22.29,0,0,1-8.52,5.33,32.89,32.89,0,0,1-11,1.75,46.24,46.24,0,0,1-5-.28,33,33,0,0,1-5.42-1.05,28.52,28.52,0,0,1-5.55-2.21,26.89,26.89,0,0,1-5.35-3.68l2.77-1.82,3.22-4.56.91-3.65a13.51,13.51,0,0,0,3.16,2.18,19.69,19.69,0,0,0,3.8,1.43,31.29,31.29,0,0,0,4,.78,32.66,32.66,0,0,0,3.83.24,13.94,13.94,0,0,0,9-2.77,12.43,12.43,0,0,0,4.45-7.61,17.06,17.06,0,0,1-6.74,3,38,38,0,0,1-7.71.77,27.19,27.19,0,0,1-7.74-1.12,20.87,20.87,0,0,1-6.77-3.37,17.31,17.31,0,0,1-4.81-5.61,16.17,16.17,0,0,1-1.84-7.85,18.64,18.64,0,0,1,1.68-8,17.84,17.84,0,0,1,4.77-6.21,22.62,22.62,0,0,1,7.46-4A30.74,30.74,0,0,1,1422.77,475.84Zm-10.45,19.7a6.25,6.25,0,0,0,1,3.57,7.24,7.24,0,0,0,2.62,2.35,12.33,12.33,0,0,0,3.64,1.27,22.58,22.58,0,0,0,4.1.38,14,14,0,0,0,7.77-2,6.13,6.13,0,0,0,3-5.4,5.42,5.42,0,0,0-.87-3,7.78,7.78,0,0,0-2.36-2.27,11.83,11.83,0,0,0-3.58-1.48,18.35,18.35,0,0,0-4.48-.52,20.8,20.8,0,0,0-4.26.42,11.16,11.16,0,0,0-3.45,1.29,6.93,6.93,0,0,0-2.29,2.21A5.8,5.8,0,0,0,1412.32,495.54Z"/><path class="cls-1" d="M1452.13,525a7.61,7.61,0,0,1,2-5.54,7.46,7.46,0,0,1,10.38,0,8.54,8.54,0,0,1,0,11.08,7.46,7.46,0,0,1-10.38,0A7.61,7.61,0,0,1,1452.13,525Z"/><path class="cls-1" d="M1539.79,504.23a38,38,0,0,1-1.64,11.4,27,27,0,0,1-4.74,9,21.44,21.44,0,0,1-7.62,5.89,26,26,0,0,1-20.48,0,21.47,21.47,0,0,1-7.58-5.89,27,27,0,0,1-4.74-9,40.41,40.41,0,0,1,0-22.79,26.87,26.87,0,0,1,4.74-9,21.36,21.36,0,0,1,7.58-5.89,26,26,0,0,1,20.48,0,21.32,21.32,0,0,1,7.62,5.89,26.87,26.87,0,0,1,4.74,9A38,38,0,0,1,1539.79,504.23Zm-13.16,0a25.73,25.73,0,0,0-.9-7.29,14.44,14.44,0,0,0-2.42-4.91,8.89,8.89,0,0,0-3.52-2.73,11.2,11.2,0,0,0-8.51,0,8.71,8.71,0,0,0-3.48,2.73,14.8,14.8,0,0,0-2.39,4.91,30.14,30.14,0,0,0,0,14.62,14.67,14.67,0,0,0,2.39,4.87,8.65,8.65,0,0,0,3.48,2.74,11.2,11.2,0,0,0,8.51,0,8.83,8.83,0,0,0,3.52-2.74,14.32,14.32,0,0,0,2.42-4.87A25.64,25.64,0,0,0,1526.63,504.23Z"/><path class="cls-1" d="M1569.66,498.06q4.71,0,4.71-4.06a4.6,4.6,0,0,0-2.48-4c-1.66-1-4.16-1.54-7.52-1.54a22.65,22.65,0,0,0-8.16,1.54,19.9,19.9,0,0,0-7.51,5.33L1547,492l-3.1-4.48-2.64-2a25.18,25.18,0,0,1,4.77-4.14,28.78,28.78,0,0,1,5.84-3,37.75,37.75,0,0,1,13.32-2.45,32.1,32.1,0,0,1,8.19,1.05,23,23,0,0,1,7.16,3.19,16.2,16.2,0,0,1,5.07,5.47,15.87,15.87,0,0,1,1.9,8,14.31,14.31,0,0,1-1.29,6.17,12.07,12.07,0,0,1-3.42,4.41,11.4,11.4,0,0,1,3.9,4.46,13.84,13.84,0,0,1,1.45,6.41,15.57,15.57,0,0,1-1.93,8,16.47,16.47,0,0,1-5.13,5.47,23.34,23.34,0,0,1-7.32,3.19,34.65,34.65,0,0,1-8.58,1,40.31,40.31,0,0,1-7.13-.63,39.17,39.17,0,0,1-6.71-1.82,28.76,28.76,0,0,1-5.93-3,24.75,24.75,0,0,1-4.81-4.13l2.65-2,3.09-4.48,1.68-3.37a19.91,19.91,0,0,0,7.58,5.33,24.54,24.54,0,0,0,8.74,1.54c3.66,0,6.34-.51,8.06-1.54a4.57,4.57,0,0,0,2.58-4q0-3.78-4.7-3.78h-8.78l-3.87.7q-.2-2-.42-3.69t-.51-3.33c-.2-1.07-.43-2.17-.71-3.29s-.6-2.36-.94-3.72l6.45.7Z"/></g></g></svg>