<svg xmlns="http://www.w3.org/2000/svg" viewBox="0 0 357.99 89.32"><g id="Layer_2" data-name="Layer 2"><g id="Layer_1-2" data-name="Layer 1"><path d="M66.32,54.22H0V45.36H24.41V32.62H34.85V45.36H66.32Zm-5.76-43c0,11.31-1.59,22.32-5.4,28.66H46.23A64.75,64.75,0,0,0,49,27.51H4.68V18.87H49.83c.14-2.24.21-4.61.29-7.06V10H4.32V1.37H60.56Z"/><path d="M98.86,22.25c10.87,0,19.73-.36,26.57-1.66V0h10.44V31.18H125.43V25.92c-6.27,2.95-16.13,3.53-26.57,3.53H76.75V.72h39.1v7.2H87.12V22.25ZM78.77,44.86c0-5.62,3.89-11.52,16.85-11.52h24.77c12.89,0,16.77,5.9,16.77,11.52,0,6-4.39,11.52-16.77,11.52H95.62C83.16,56.38,78.77,50.91,78.77,44.86Zm40.46,3.46c5.91,0,6.77-1.66,6.77-3.39s-.65-3.53-6.77-3.53H96.7c-6,0-6.77,1.88-6.77,3.53s.93,3.39,6.77,3.39Z"/><path d="M188.14,52.85H150.19V1.3h37.95ZM177.7,9.29H160.63V44.86H177.7Zm30.17,46.37H197.5V0h10.37V18.15h6.77v7.92h-6.77Z"/><path d="M288.44,54.22H222.12V45.36h66.32ZM263,.36V4.61a28.56,28.56,0,0,1-2.09,10.3c6.33,7.77,17,13.24,25,16v7.56a59.86,59.86,0,0,1-31.68-13.1c-6.26,6.62-15.84,11.88-29,13.1V30.89c14.4-3.89,25.71-14,25.71-27.07V.36Z"/><path d="M321,44.86c18.57,0,25.7-4.9,26.57-5.54V28.23h-8.14v-8h8.14V0H358V55.66H347.55V45.08c-8,7.84-22.69,7.77-26.57,7.77H298.87V1.3h37.95v8H309.31v13.1h26.07v8H309.31V44.86Z"/><path d="M46,80.23c0-5.43,2.71-9,8.59-9h6v2.66h-6c-3.58,0-5,2.45-5,6.39s1.34,5.88,5,6.38a15.44,15.44,0,0,0,6.67-.79v2a11.28,11.28,0,0,1-6.67,1.48C48.63,89,46,85.72,46,80.23Z"/><path d="M83.91,80c0,5.49-2.35,9.33-8.35,9.33S67.2,85.6,67.2,80c0-5.45,2.45-9.37,8.36-9.37S83.91,74.56,83.91,80Zm-3.6,0c0-3.94-1.18-6.68-4.75-6.68S70.8,76.05,70.8,80s1.16,6.64,4.76,6.64S80.31,83.85,80.31,80Z"/><path d="M91.25,71.18H99.1c5.88,0,8,3.38,8,8.81s-2,8.8-8,8.8H91.25Zm3.41,14.95h4.2c3.67,0,4.75-2.28,4.75-6.14s-1.17-6.15-4.75-6.15h-4.2Z"/><path d="M114.56,88.79V71.18H118V88.79Z"/><path d="M126.15,88.79V71.18h2.93l9.62,12.31V71.18h3.41V88.79h-2.93l-9.62-12.07V88.79Z"/><path d="M158.28,89.27c-6-.31-8.83-3.55-8.83-9s2.71-9,8.59-9h6.51v2.66H158c-3.57,0-5,2.45-5,6.39s1.59,5.88,5.23,6.38a15.88,15.88,0,0,0,3.51,0V81.76h-4.37V79.1h7.78v8.69C163.73,88.89,161,89.42,158.28,89.27Z"/><path d="M188.74,77.51V88.79h-3.36V71.18h2.93l7,12.07,7-12.07h2.92V88.79h-3.36V77.51l-5.78,10.08h-1.54Z"/><path d="M222.77,71.18l6.82,17.61h-3.48l-1.73-4.63h-7.46l-1.73,4.63h-3.48l6.91-17.61Zm-2.11,2.95L217.9,81.5h5.5Z"/><path d="M242.07,89.27a12.6,12.6,0,0,1-6.68-1.72v-2a20,20,0,0,0,6.68,1c3.81-.07,5.21-1.06,5.21-2.74s-1.2-2.23-3.68-2.49c-5.13-.55-8.35-1.61-8.33-5.19s2.72-5,8.6-5h5.3v2.66h-5.3c-3.58,0-5,.6-5,2.23s1,2.36,5.24,2.79c4.87.5,6.77,2,6.77,5.06C250.88,87.28,247.52,89.32,242.07,89.27Z"/><path d="M271.92,73.84H266v15h-3.41v-15h-5.85V71.18h15.14Z"/><path d="M278.67,71.18H292.4v2.66H282.07v4.61h10.21v2.66H282.07v5h3.68a35.36,35.36,0,0,0,7.73-.55v2c-1.4,1-4.83,1.24-7.71,1.24h-7.1Z"/><path d="M316,76.65a4.94,4.94,0,0,1-2,4.13,3,3,0,0,1,1.92,2.83v5.18h-3.38V84.35c-.05-1.51-.51-2.23-2.72-2.23h-6v6.67h-3.41V71.18h8.25C313.71,71.18,316,72.81,316,76.65Zm-12.24,2.81h4.84c2.84,0,3.77-.91,3.77-2.81s-.86-2.81-3.77-2.81h-4.84Z"/></g></g></svg>